<svg width="600" height="371" viewBox="0 0 600 371" fill="none" xmlns="http://www.w3.org/2000/svg">
<g clip-path="url(#clip0_134_123)">
<path d="M0 0H600V371H0V0Z" fill="white"/>
<path d="M77.5 332.5H581.5" stroke="#333333" stroke-miterlimit="10"/>
<path d="M77.5 270.5H581.5" stroke="#CCCCCC" stroke-miterlimit="10"/>
<path d="M77.5 209.5H581.5" stroke="#CCCCCC" stroke-miterlimit="10"/>
<path d="M77.5 147.5H581.5" stroke="#CCCCCC" stroke-miterlimit="10"/>
<path d="M77.5 85.5H581.5" stroke="#CCCCCC" stroke-miterlimit="10"/>
<mask id="mask0_134_123" style="mask-type:luminance" maskUnits="userSpaceOnUse" x="77" y="85" width="505" height="248">
<path d="M77.55 85.9166H581.45V332.45H77.55V85.9166Z" fill="white"/>
</mask>
<g mask="url(#mask0_134_123)">
<path d="M292 332H153V138C153 136.895 153.895 136 155 136H290C291.105 136 292 136.895 292 138V332Z" fill="#4285F4"/>
</g>
<mask id="mask1_134_123" style="mask-type:luminance" maskUnits="userSpaceOnUse" x="77" y="85" width="505" height="248">
<path d="M77.55 85.9166H581.45V332.45H77.55V85.9166Z" fill="white"/>
</mask>
<g mask="url(#mask1_134_123)">
<path d="M507 332H368V298C368 296.895 368.895 296 370 296H505C506.105 296 507 296.895 507 298V332Z" fill="#4285F4"/>
</g>
<path d="M214.969 143.91V144.816H214.766C213.922 144.837 213.25 145.092 212.75 145.582C212.25 146.061 211.958 146.738 211.875 147.613C212.333 147.103 212.948 146.848 213.719 146.848C214.458 146.848 215.052 147.108 215.5 147.629C215.948 148.15 216.172 148.827 216.172 149.66C216.172 150.535 215.932 151.238 215.453 151.77C214.974 152.301 214.328 152.566 213.516 152.566C212.703 152.566 212.042 152.254 211.531 151.629C211.031 150.993 210.781 150.181 210.781 149.191V148.785C210.781 147.212 211.115 146.009 211.781 145.176C212.448 144.342 213.443 143.921 214.766 143.91H214.969ZM213.547 147.754C213.172 147.754 212.828 147.863 212.516 148.082C212.203 148.301 211.984 148.582 211.859 148.926V149.316C211.859 150.025 212.016 150.592 212.328 151.02C212.651 151.447 213.047 151.66 213.516 151.66C214.005 151.66 214.391 151.483 214.672 151.129C214.953 150.764 215.094 150.29 215.094 149.707C215.094 149.124 214.953 148.655 214.672 148.301C214.391 147.936 214.016 147.754 213.547 147.754ZM217.844 151.879C217.844 151.691 217.896 151.535 218 151.41C218.115 151.285 218.281 151.223 218.5 151.223C218.729 151.223 218.901 151.285 219.016 151.41C219.13 151.535 219.188 151.691 219.188 151.879C219.188 152.056 219.13 152.207 219.016 152.332C218.901 152.447 218.729 152.504 218.5 152.504C218.281 152.504 218.115 152.447 218 152.332C217.896 152.207 217.844 152.056 217.844 151.879ZM222.281 147.645H223.094C223.615 147.634 224.021 147.499 224.312 147.238C224.604 146.978 224.75 146.624 224.75 146.176C224.75 145.176 224.25 144.676 223.25 144.676C222.781 144.676 222.406 144.811 222.125 145.082C221.854 145.353 221.719 145.707 221.719 146.145H220.625C220.625 145.467 220.87 144.905 221.359 144.457C221.859 144.009 222.49 143.785 223.25 143.785C224.052 143.785 224.682 143.999 225.141 144.426C225.599 144.853 225.828 145.447 225.828 146.207C225.828 146.582 225.708 146.941 225.469 147.285C225.229 147.629 224.901 147.889 224.484 148.066C224.953 148.212 225.312 148.457 225.562 148.801C225.823 149.145 225.953 149.566 225.953 150.066C225.953 150.827 225.703 151.436 225.203 151.895C224.703 152.342 224.052 152.566 223.25 152.566C222.458 152.566 221.807 152.348 221.297 151.91C220.797 151.473 220.547 150.9 220.547 150.191H221.641C221.641 150.639 221.786 150.999 222.078 151.27C222.37 151.54 222.766 151.676 223.266 151.676C223.786 151.676 224.182 151.54 224.453 151.27C224.734 150.988 224.875 150.592 224.875 150.082C224.875 149.592 224.724 149.217 224.422 148.957C224.12 148.686 223.677 148.546 223.094 148.535H222.281V147.645ZM231.859 148.691C231.641 148.962 231.37 149.181 231.047 149.348C230.734 149.504 230.391 149.582 230.016 149.582C229.526 149.582 229.099 149.462 228.734 149.223C228.37 148.983 228.089 148.645 227.891 148.207C227.693 147.759 227.594 147.27 227.594 146.738C227.594 146.176 227.698 145.665 227.906 145.207C228.125 144.749 228.432 144.4 228.828 144.16C229.234 143.91 229.703 143.785 230.234 143.785C231.078 143.785 231.74 144.103 232.219 144.738C232.708 145.374 232.953 146.233 232.953 147.316V147.629C232.953 149.296 232.625 150.509 231.969 151.27C231.313 152.03 230.323 152.421 229 152.441H228.781V151.535H229.016C229.911 151.514 230.599 151.28 231.078 150.832C231.557 150.384 231.818 149.671 231.859 148.691ZM230.188 148.691C230.552 148.691 230.885 148.582 231.188 148.363C231.5 148.134 231.729 147.858 231.875 147.535V147.098C231.875 146.389 231.719 145.811 231.406 145.363C231.094 144.915 230.703 144.691 230.234 144.691C229.755 144.691 229.37 144.874 229.078 145.238C228.797 145.603 228.656 146.087 228.656 146.691C228.656 147.275 228.792 147.754 229.062 148.129C229.344 148.504 229.719 148.691 230.188 148.691Z" stroke="#4285F4" stroke-width="3" stroke-miterlimit="10" stroke-linecap="round" stroke-linejoin="round"/>
<path d="M214.969 143.91V144.816H214.766C213.922 144.837 213.25 145.092 212.75 145.582C212.25 146.061 211.958 146.738 211.875 147.613C212.333 147.103 212.948 146.848 213.719 146.848C214.458 146.848 215.052 147.108 215.5 147.629C215.948 148.15 216.172 148.827 216.172 149.66C216.172 150.535 215.932 151.238 215.453 151.77C214.974 152.301 214.328 152.566 213.516 152.566C212.703 152.566 212.042 152.254 211.531 151.629C211.031 150.993 210.781 150.181 210.781 149.191V148.785C210.781 147.212 211.115 146.009 211.781 145.176C212.448 144.342 213.443 143.921 214.766 143.91H214.969ZM213.547 147.754C213.172 147.754 212.828 147.863 212.516 148.082C212.203 148.301 211.984 148.582 211.859 148.926V149.316C211.859 150.025 212.016 150.592 212.328 151.02C212.651 151.447 213.047 151.66 213.516 151.66C214.005 151.66 214.391 151.483 214.672 151.129C214.953 150.764 215.094 150.29 215.094 149.707C215.094 149.124 214.953 148.655 214.672 148.301C214.391 147.936 214.016 147.754 213.547 147.754ZM217.844 151.879C217.844 151.691 217.896 151.535 218 151.41C218.115 151.285 218.281 151.223 218.5 151.223C218.729 151.223 218.901 151.285 219.016 151.41C219.13 151.535 219.188 151.691 219.188 151.879C219.188 152.056 219.13 152.207 219.016 152.332C218.901 152.447 218.729 152.504 218.5 152.504C218.281 152.504 218.115 152.447 218 152.332C217.896 152.207 217.844 152.056 217.844 151.879ZM222.281 147.645H223.094C223.615 147.634 224.021 147.499 224.312 147.238C224.604 146.978 224.75 146.624 224.75 146.176C224.75 145.176 224.25 144.676 223.25 144.676C222.781 144.676 222.406 144.811 222.125 145.082C221.854 145.353 221.719 145.707 221.719 146.145H220.625C220.625 145.467 220.87 144.905 221.359 144.457C221.859 144.009 222.49 143.785 223.25 143.785C224.052 143.785 224.682 143.999 225.141 144.426C225.599 144.853 225.828 145.447 225.828 146.207C225.828 146.582 225.708 146.941 225.469 147.285C225.229 147.629 224.901 147.889 224.484 148.066C224.953 148.212 225.312 148.457 225.562 148.801C225.823 149.145 225.953 149.566 225.953 150.066C225.953 150.827 225.703 151.436 225.203 151.895C224.703 152.342 224.052 152.566 223.25 152.566C222.458 152.566 221.807 152.348 221.297 151.91C220.797 151.473 220.547 150.9 220.547 150.191H221.641C221.641 150.639 221.786 150.999 222.078 151.27C222.37 151.54 222.766 151.676 223.266 151.676C223.786 151.676 224.182 151.54 224.453 151.27C224.734 150.988 224.875 150.592 224.875 150.082C224.875 149.592 224.724 149.217 224.422 148.957C224.12 148.686 223.677 148.546 223.094 148.535H222.281V147.645ZM231.859 148.691C231.641 148.962 231.37 149.181 231.047 149.348C230.734 149.504 230.391 149.582 230.016 149.582C229.526 149.582 229.099 149.462 228.734 149.223C228.37 148.983 228.089 148.645 227.891 148.207C227.693 147.759 227.594 147.27 227.594 146.738C227.594 146.176 227.698 145.665 227.906 145.207C228.125 144.749 228.432 144.4 228.828 144.16C229.234 143.91 229.703 143.785 230.234 143.785C231.078 143.785 231.74 144.103 232.219 144.738C232.708 145.374 232.953 146.233 232.953 147.316V147.629C232.953 149.296 232.625 150.509 231.969 151.27C231.313 152.03 230.323 152.421 229 152.441H228.781V151.535H229.016C229.911 151.514 230.599 151.28 231.078 150.832C231.557 150.384 231.818 149.671 231.859 148.691ZM230.188 148.691C230.552 148.691 230.885 148.582 231.188 148.363C231.5 148.134 231.729 147.858 231.875 147.535V147.098C231.875 146.389 231.719 145.811 231.406 145.363C231.094 144.915 230.703 144.691 230.234 144.691C229.755 144.691 229.37 144.874 229.078 145.238C228.797 145.603 228.656 146.087 228.656 146.691C228.656 147.275 228.792 147.754 229.062 148.129C229.344 148.504 229.719 148.691 230.188 148.691Z" fill="white"/>
<path d="M429.266 312.678H428.188V305.46L426 306.257V305.272L429.109 304.1H429.266V312.678ZM432.844 312.116C432.844 311.928 432.896 311.772 433 311.647C433.115 311.522 433.281 311.46 433.5 311.46C433.729 311.46 433.901 311.522 434.016 311.647C434.13 311.772 434.188 311.928 434.188 312.116C434.188 312.293 434.13 312.444 434.016 312.569C433.901 312.684 433.729 312.741 433.5 312.741C433.281 312.741 433.115 312.684 433 312.569C432.896 312.444 432.844 312.293 432.844 312.116ZM439.266 312.678H438.188V305.46L436 306.257V305.272L439.109 304.1H439.266V312.678ZM446.859 308.928C446.641 309.199 446.37 309.418 446.047 309.585C445.734 309.741 445.391 309.819 445.016 309.819C444.526 309.819 444.099 309.699 443.734 309.46C443.37 309.22 443.089 308.882 442.891 308.444C442.693 307.996 442.594 307.507 442.594 306.975C442.594 306.413 442.698 305.902 442.906 305.444C443.125 304.986 443.432 304.637 443.828 304.397C444.234 304.147 444.703 304.022 445.234 304.022C446.078 304.022 446.74 304.34 447.219 304.975C447.708 305.611 447.953 306.47 447.953 307.553V307.866C447.953 309.533 447.625 310.746 446.969 311.507C446.313 312.267 445.323 312.658 444 312.678H443.781V311.772H444.016C444.911 311.751 445.599 311.517 446.078 311.069C446.557 310.621 446.818 309.908 446.859 308.928ZM445.188 308.928C445.552 308.928 445.885 308.819 446.188 308.6C446.5 308.371 446.729 308.095 446.875 307.772V307.335C446.875 306.626 446.719 306.048 446.406 305.6C446.094 305.152 445.703 304.928 445.234 304.928C444.755 304.928 444.37 305.111 444.078 305.475C443.797 305.84 443.656 306.324 443.656 306.928C443.656 307.512 443.792 307.991 444.062 308.366C444.344 308.741 444.719 308.928 445.188 308.928Z" stroke="#4285F4" stroke-width="3" stroke-miterlimit="10" stroke-linecap="round" stroke-linejoin="round"/>
<path d="M429.266 312.678H428.188V305.46L426 306.257V305.272L429.109 304.1H429.266V312.678ZM432.844 312.116C432.844 311.928 432.896 311.772 433 311.647C433.115 311.522 433.281 311.46 433.5 311.46C433.729 311.46 433.901 311.522 434.016 311.647C434.13 311.772 434.188 311.928 434.188 312.116C434.188 312.293 434.13 312.444 434.016 312.569C433.901 312.684 433.729 312.741 433.5 312.741C433.281 312.741 433.115 312.684 433 312.569C432.896 312.444 432.844 312.293 432.844 312.116ZM439.266 312.678H438.188V305.46L436 306.257V305.272L439.109 304.1H439.266V312.678ZM446.859 308.928C446.641 309.199 446.37 309.418 446.047 309.585C445.734 309.741 445.391 309.819 445.016 309.819C444.526 309.819 444.099 309.699 443.734 309.46C443.37 309.22 443.089 308.882 442.891 308.444C442.693 307.996 442.594 307.507 442.594 306.975C442.594 306.413 442.698 305.902 442.906 305.444C443.125 304.986 443.432 304.637 443.828 304.397C444.234 304.147 444.703 304.022 445.234 304.022C446.078 304.022 446.74 304.34 447.219 304.975C447.708 305.611 447.953 306.47 447.953 307.553V307.866C447.953 309.533 447.625 310.746 446.969 311.507C446.313 312.267 445.323 312.658 444 312.678H443.781V311.772H444.016C444.911 311.751 445.599 311.517 446.078 311.069C446.557 310.621 446.818 309.908 446.859 308.928ZM445.188 308.928C445.552 308.928 445.885 308.819 446.188 308.6C446.5 308.371 446.729 308.095 446.875 307.772V307.335C446.875 306.626 446.719 306.048 446.406 305.6C446.094 305.152 445.703 304.928 445.234 304.928C444.755 304.928 444.37 305.111 444.078 305.475C443.797 305.84 443.656 306.324 443.656 306.928C443.656 307.512 443.792 307.991 444.062 308.366C444.344 308.741 444.719 308.928 445.188 308.928Z" fill="white"/>
<path d="M29.55 247.246H20.9563V243.433C20.9563 242.663 21.0344 242.079 21.1907 241.683C21.3469 241.288 21.623 240.97 22.0188 240.73C22.4042 240.491 22.8313 240.371 23.3 240.371C23.9146 240.371 24.4303 240.569 24.8469 240.965C25.2636 241.36 25.5292 241.97 25.6438 242.793C25.7896 242.491 25.9303 242.261 26.0657 242.105C26.3678 241.772 26.748 241.459 27.2063 241.168L29.55 239.668V241.105L27.7688 242.23C27.248 242.564 26.8521 242.84 26.5813 243.058C26.3105 243.267 26.123 243.459 26.0188 243.636C25.9042 243.803 25.8209 243.975 25.7688 244.152C25.748 244.277 25.7375 244.485 25.7375 244.777V246.105H29.55V247.246ZM24.7532 246.105V243.652C24.7532 243.142 24.7011 242.741 24.5969 242.449C24.4823 242.147 24.3105 241.923 24.0813 241.777C23.8417 241.621 23.5813 241.543 23.3 241.543C22.8938 241.543 22.5605 241.694 22.3 241.996C22.0396 242.288 21.9094 242.751 21.9094 243.386V246.105H24.7532ZM29.55 234.308H28.6282C29.3365 234.798 29.6907 235.459 29.6907 236.293C29.6907 236.657 29.623 237.001 29.4875 237.324C29.3417 237.636 29.1646 237.871 28.9563 238.027C28.7375 238.183 28.4719 238.293 28.1594 238.355C27.9615 238.397 27.6334 238.418 27.175 238.418H23.3313V237.355H26.7844C27.3261 237.355 27.6959 237.334 27.8938 237.293C28.1646 237.23 28.3834 237.095 28.55 236.886C28.7063 236.668 28.7844 236.397 28.7844 236.074C28.7844 235.761 28.7063 235.47 28.55 235.199C28.3834 234.918 28.1594 234.72 27.8782 234.605C27.5969 234.48 27.1907 234.418 26.6594 234.418H23.3313V233.371H29.55V234.308ZM29.55 231.386H23.3313V230.449H24.2063C23.5292 229.991 23.1907 229.329 23.1907 228.465C23.1907 228.09 23.2584 227.746 23.3938 227.433C23.5292 227.11 23.7063 226.871 23.925 226.715C24.1438 226.558 24.399 226.449 24.6907 226.386C24.8886 226.355 25.2323 226.34 25.7219 226.34H29.55V227.386H25.7688C25.3313 227.386 25.0084 227.428 24.8 227.511C24.5917 227.595 24.425 227.741 24.3 227.949C24.1646 228.157 24.0969 228.402 24.0969 228.683C24.0969 229.131 24.2428 229.522 24.5344 229.855C24.8157 230.178 25.3521 230.34 26.1438 230.34H29.55V231.386ZM28.6125 222.09L29.5344 221.933C29.5969 222.235 29.6282 222.501 29.6282 222.73C29.6282 223.116 29.5709 223.413 29.4563 223.621C29.3313 223.829 29.1698 223.98 28.9719 224.074C28.774 224.157 28.3573 224.199 27.7219 224.199H24.1438V224.965H23.3313V224.199H21.7844L21.1594 223.152H23.3313V222.09H24.1438V223.152H27.7844C28.0865 223.152 28.2792 223.136 28.3625 223.105C28.4459 223.064 28.5136 223.001 28.5657 222.918C28.6178 222.834 28.6438 222.715 28.6438 222.558C28.6438 222.433 28.6334 222.277 28.6125 222.09ZM22.175 221.386H20.9563V220.324H22.175V221.386ZM29.55 221.386H23.3313V220.324H29.55V221.386ZM29.55 218.386H23.3313V217.449H24.2063C23.8938 217.251 23.649 216.991 23.4719 216.668C23.2844 216.345 23.1907 215.975 23.1907 215.558C23.1907 215.1 23.2844 214.725 23.4719 214.433C23.6594 214.131 23.925 213.923 24.2688 213.808C23.55 213.308 23.1907 212.668 23.1907 211.886C23.1907 211.261 23.3625 210.788 23.7063 210.465C24.0396 210.131 24.5657 209.965 25.2844 209.965H29.55V211.011H25.6282C25.2115 211.011 24.9094 211.048 24.7219 211.121C24.5344 211.183 24.3834 211.303 24.2688 211.48C24.1542 211.657 24.0969 211.871 24.0969 212.121C24.0969 212.558 24.2428 212.923 24.5344 213.215C24.8261 213.496 25.2948 213.636 25.9407 213.636H29.55V214.699H25.5032C25.0344 214.699 24.6855 214.788 24.4563 214.965C24.2167 215.131 24.0969 215.407 24.0969 215.793C24.0969 216.095 24.175 216.371 24.3313 216.621C24.4875 216.871 24.7167 217.053 25.0188 217.168C25.3209 217.282 25.7532 217.34 26.3157 217.34H29.55V218.386ZM27.55 203.136L27.675 202.043C28.3105 202.209 28.8053 202.527 29.1594 202.996C29.5136 203.465 29.6907 204.058 29.6907 204.777C29.6907 205.683 29.4094 206.407 28.8469 206.949C28.2844 207.48 27.498 207.746 26.4875 207.746C25.4459 207.746 24.6386 207.475 24.0657 206.933C23.4823 206.392 23.1907 205.694 23.1907 204.84C23.1907 204.006 23.4719 203.329 24.0344 202.808C24.5969 202.277 25.3938 202.011 26.425 202.011C26.4875 202.011 26.5813 202.011 26.7063 202.011V206.652C27.3938 206.61 27.9198 206.418 28.2844 206.074C28.6386 205.73 28.8157 205.298 28.8157 204.777C28.8157 204.392 28.7167 204.064 28.5188 203.793C28.3105 203.511 27.9875 203.293 27.55 203.136ZM25.8469 206.59V203.121C25.3157 203.163 24.9198 203.293 24.6594 203.511C24.2532 203.855 24.05 204.293 24.05 204.824C24.05 205.314 24.2115 205.725 24.5344 206.058C24.8573 206.381 25.2948 206.558 25.8469 206.59ZM32.0813 195.371C31.3417 195.954 30.4823 196.449 29.5032 196.855C28.5136 197.251 27.4928 197.449 26.4407 197.449C25.5136 197.449 24.623 197.303 23.7688 197.011C22.7792 196.657 21.7948 196.11 20.8157 195.371V194.621C21.6282 195.09 22.2063 195.402 22.55 195.558C23.0917 195.798 23.6542 195.985 24.2375 196.121C24.9667 196.288 25.7011 196.371 26.4407 196.371C28.3261 196.371 30.2063 195.788 32.0813 194.621V195.371ZM27.6907 193.808L27.5344 192.777C27.9511 192.715 28.2688 192.553 28.4875 192.293C28.7063 192.022 28.8157 191.642 28.8157 191.152C28.8157 190.673 28.7219 190.319 28.5344 190.09C28.3365 189.85 28.1021 189.73 27.8313 189.73C27.5917 189.73 27.4042 189.834 27.2688 190.043C27.175 190.189 27.0553 190.548 26.9094 191.121C26.7115 191.892 26.5448 192.428 26.4094 192.73C26.2636 193.022 26.0657 193.246 25.8157 193.402C25.5657 193.558 25.2844 193.636 24.9719 193.636C24.7011 193.636 24.4459 193.574 24.2063 193.449C23.9667 193.324 23.7688 193.152 23.6125 192.933C23.498 192.767 23.399 192.543 23.3157 192.261C23.2323 191.98 23.1907 191.673 23.1907 191.34C23.1907 190.86 23.2636 190.439 23.4094 190.074C23.5448 189.699 23.7323 189.423 23.9719 189.246C24.2115 189.069 24.5292 188.949 24.925 188.886L25.0657 189.918C24.7532 189.959 24.5084 190.095 24.3313 190.324C24.1438 190.543 24.05 190.86 24.05 191.277C24.05 191.756 24.1334 192.1 24.3 192.308C24.4563 192.517 24.6438 192.621 24.8625 192.621C24.998 192.621 25.1178 192.579 25.2219 192.496C25.3365 192.402 25.4303 192.267 25.5032 192.09C25.5448 191.985 25.6334 191.673 25.7688 191.152C25.9771 190.402 26.1438 189.881 26.2688 189.59C26.3938 189.298 26.5761 189.069 26.8157 188.902C27.0553 188.735 27.3573 188.652 27.7219 188.652C28.0761 188.652 28.4094 188.756 28.7219 188.965C29.024 189.163 29.2636 189.454 29.4407 189.84C29.6073 190.225 29.6907 190.663 29.6907 191.152C29.6907 191.965 29.524 192.584 29.1907 193.011C28.8469 193.428 28.3469 193.694 27.6907 193.808ZM32.0813 185.699V186.449C30.2063 185.282 28.3261 184.699 26.4407 184.699C25.7115 184.699 24.9823 184.782 24.2532 184.949C23.6698 185.084 23.1073 185.272 22.5657 185.511C22.2219 185.668 21.6386 185.98 20.8157 186.449V185.699C21.7948 184.97 22.7792 184.428 23.7688 184.074C24.623 183.772 25.5136 183.621 26.4407 183.621C27.4928 183.621 28.5136 183.824 29.5032 184.23C30.4823 184.636 31.3417 185.126 32.0813 185.699Z" fill="black"/>
<path d="M65.05 332.216C65.05 331.195 65.1542 330.377 65.3625 329.762C65.5709 329.137 65.8782 328.658 66.2844 328.325C66.7011 327.992 67.2219 327.825 67.8469 327.825C68.3053 327.825 68.7063 327.919 69.05 328.106C69.4042 328.294 69.6959 328.565 69.925 328.919C70.1542 329.262 70.3313 329.684 70.4563 330.184C70.5813 330.684 70.6438 331.361 70.6438 332.216C70.6438 333.226 70.5396 334.038 70.3313 334.653C70.1334 335.268 69.8261 335.747 69.4094 336.091C69.0032 336.424 68.4823 336.591 67.8469 336.591C67.024 336.591 66.373 336.294 65.8938 335.7C65.3313 334.992 65.05 333.83 65.05 332.216ZM66.1282 332.216C66.1282 333.622 66.2948 334.559 66.6282 335.028C66.9615 335.497 67.3678 335.731 67.8469 335.731C68.3365 335.731 68.7428 335.497 69.0657 335.028C69.399 334.559 69.5657 333.622 69.5657 332.216C69.5657 330.799 69.399 329.861 69.0657 329.403C68.7428 328.934 68.3313 328.7 67.8313 328.7C67.3521 328.7 66.9667 328.903 66.675 329.309C66.3105 329.83 66.1282 330.799 66.1282 332.216Z" fill="black"/>
<path d="M70.5969 273.801V274.817H64.9094C64.9094 274.567 64.9511 274.322 65.0344 274.082C65.1803 273.697 65.4094 273.317 65.7219 272.942C66.0448 272.567 66.5084 272.134 67.1125 271.645C68.05 270.874 68.6803 270.265 69.0032 269.817C69.3365 269.369 69.5032 268.947 69.5032 268.551C69.5032 268.134 69.3521 267.785 69.05 267.504C68.748 267.212 68.3573 267.067 67.8782 267.067C67.3678 267.067 66.9615 267.218 66.6594 267.52C66.3573 267.822 66.2011 268.244 66.1907 268.785L65.1125 268.676C65.1855 267.864 65.4615 267.249 65.9407 266.832C66.4303 266.405 67.0865 266.192 67.9094 266.192C68.7323 266.192 69.3834 266.421 69.8625 266.879C70.3417 267.337 70.5813 267.905 70.5813 268.582C70.5813 268.926 70.5084 269.265 70.3625 269.598C70.2271 269.921 69.9928 270.27 69.6594 270.645C69.3365 271.009 68.8 271.509 68.05 272.145C67.4146 272.676 67.0032 273.041 66.8157 273.239C66.6386 273.426 66.4928 273.614 66.3782 273.801H70.5969Z" fill="black"/>
<path d="M68.425 213.183V211.121H64.7063V210.152L68.6282 204.59H69.4875V210.152H70.6438V211.121H69.4875V213.183H68.425ZM68.425 210.152V206.293L65.7375 210.152H68.425Z" fill="black"/>
<path d="M70.5188 145.066L69.4719 145.144C69.3782 144.727 69.248 144.425 69.0813 144.238C68.7896 143.935 68.4355 143.784 68.0188 143.784C67.6855 143.784 67.3886 143.878 67.1282 144.066C66.8053 144.316 66.5448 144.675 66.3469 145.144C66.1594 145.602 66.0605 146.258 66.05 147.113C66.3 146.727 66.6073 146.441 66.9719 146.253C67.3469 146.066 67.7376 145.972 68.1438 145.972C68.8417 145.972 69.4355 146.232 69.925 146.753C70.425 147.274 70.675 147.941 70.675 148.753C70.675 149.295 70.5553 149.8 70.3157 150.269C70.0865 150.727 69.7688 151.081 69.3625 151.331C68.9563 151.571 68.498 151.691 67.9875 151.691C67.1021 151.691 66.3834 151.368 65.8313 150.722C65.2792 150.076 65.0032 149.014 65.0032 147.534C65.0032 145.868 65.3105 144.659 65.925 143.909C66.4563 143.253 67.1751 142.925 68.0813 142.925C68.7584 142.925 69.3105 143.118 69.7375 143.503C70.175 143.878 70.4355 144.399 70.5188 145.066ZM66.2219 148.769C66.2219 149.133 66.2948 149.482 66.4407 149.816C66.5969 150.139 66.8105 150.389 67.0813 150.566C67.3626 150.743 67.6594 150.831 67.9719 150.831C68.4094 150.831 68.7896 150.654 69.1125 150.3C69.4355 149.935 69.5969 149.446 69.5969 148.831C69.5969 148.238 69.4355 147.769 69.1125 147.425C68.8 147.081 68.4042 146.909 67.925 146.909C67.4459 146.909 67.0396 147.081 66.7063 147.425C66.3834 147.769 66.2219 148.217 66.2219 148.769Z" fill="black"/>
<path d="M66.675 85.2604C66.2375 85.0937 65.9094 84.8645 65.6907 84.5729C65.4823 84.2708 65.3782 83.9166 65.3782 83.5104C65.3782 82.8854 65.6021 82.3593 66.05 81.9323C66.5084 81.5052 67.1073 81.2916 67.8469 81.2916C68.5969 81.2916 69.2011 81.5104 69.6594 81.9479C70.1178 82.3854 70.3469 82.9166 70.3469 83.5416C70.3469 83.9375 70.2428 84.2812 70.0344 84.5729C69.8261 84.8645 69.5084 85.0937 69.0813 85.2604C69.6126 85.427 70.0136 85.7031 70.2844 86.0885C70.5553 86.4739 70.6907 86.9323 70.6907 87.4635C70.6907 88.1927 70.4303 88.8073 69.9094 89.3073C69.399 89.8073 68.7167 90.0573 67.8625 90.0573C67.0188 90.0573 66.3365 89.8073 65.8157 89.3073C65.2948 88.8073 65.0344 88.1823 65.0344 87.4323C65.0344 86.8698 65.1751 86.401 65.4563 86.026C65.748 85.651 66.1542 85.3958 66.675 85.2604ZM66.4563 83.4635C66.4563 83.8698 66.5865 84.2031 66.8469 84.4635C67.1178 84.7239 67.4615 84.8541 67.8782 84.8541C68.2844 84.8541 68.6178 84.7291 68.8782 84.4791C69.1386 84.2187 69.2688 83.901 69.2688 83.526C69.2688 83.1406 69.1334 82.8177 68.8625 82.5573C68.5917 82.2864 68.2584 82.151 67.8625 82.151C67.4563 82.151 67.1178 82.2812 66.8469 82.5416C66.5865 82.802 66.4563 83.1093 66.4563 83.4635ZM66.1282 87.4323C66.1282 87.7343 66.1959 88.026 66.3313 88.3073C66.4771 88.5885 66.6907 88.8073 66.9719 88.9635C67.2532 89.1198 67.5553 89.1979 67.8782 89.1979C68.3782 89.1979 68.7896 89.0364 69.1125 88.7135C69.4459 88.3906 69.6125 87.9791 69.6125 87.4791C69.6125 86.9687 69.4459 86.5468 69.1125 86.2135C68.7792 85.8802 68.3573 85.7135 67.8469 85.7135C67.3469 85.7135 66.9355 85.8802 66.6125 86.2135C66.2896 86.5364 66.1282 86.9427 66.1282 87.4323Z" fill="black"/>
<path d="M176.834 346.684L177.896 346.591C177.949 347.028 178.068 347.382 178.256 347.653C178.443 347.924 178.73 348.148 179.115 348.325C179.511 348.492 179.954 348.575 180.443 348.575C180.87 348.575 181.251 348.512 181.584 348.387C181.917 348.252 182.162 348.075 182.318 347.856C182.485 347.627 182.568 347.382 182.568 347.122C182.568 346.851 182.49 346.617 182.334 346.419C182.178 346.21 181.923 346.038 181.568 345.903C181.329 345.809 180.813 345.669 180.021 345.481C179.24 345.294 178.693 345.117 178.381 344.95C177.964 344.731 177.657 344.466 177.459 344.153C177.261 343.83 177.162 343.471 177.162 343.075C177.162 342.648 177.282 342.247 177.521 341.872C177.771 341.486 178.131 341.2 178.6 341.012C179.079 340.815 179.605 340.716 180.178 340.716C180.813 340.716 181.376 340.82 181.865 341.028C182.355 341.226 182.73 341.528 182.99 341.934C183.251 342.33 183.391 342.778 183.412 343.278L182.318 343.356C182.256 342.815 182.053 342.408 181.709 342.137C181.376 341.856 180.881 341.716 180.225 341.716C179.537 341.716 179.037 341.841 178.725 342.091C178.412 342.341 178.256 342.643 178.256 342.997C178.256 343.309 178.365 343.565 178.584 343.762C178.803 343.96 179.37 344.163 180.287 344.372C181.214 344.58 181.85 344.762 182.193 344.919C182.693 345.158 183.063 345.455 183.303 345.809C183.542 346.153 183.662 346.559 183.662 347.028C183.662 347.486 183.532 347.919 183.271 348.325C183.011 348.721 182.636 349.033 182.146 349.262C181.657 349.481 181.105 349.591 180.49 349.591C179.709 349.591 179.053 349.481 178.521 349.262C178.001 349.033 177.589 348.69 177.287 348.231C176.995 347.773 176.844 347.257 176.834 346.684ZM185.084 342.075V340.856H186.146V342.075H185.084ZM185.084 349.45V343.231H186.146V349.45H185.084ZM188.084 349.45V343.231H189.021V344.106C189.48 343.429 190.141 343.091 191.006 343.091C191.381 343.091 191.725 343.158 192.037 343.294C192.36 343.429 192.6 343.606 192.756 343.825C192.912 344.044 193.021 344.299 193.084 344.591C193.115 344.788 193.131 345.132 193.131 345.622V349.45H192.084V345.669C192.084 345.231 192.042 344.908 191.959 344.7C191.876 344.492 191.73 344.325 191.521 344.2C191.313 344.065 191.068 343.997 190.787 343.997C190.339 343.997 189.949 344.143 189.615 344.434C189.292 344.716 189.131 345.252 189.131 346.044V349.45H188.084ZM194.881 349.966L195.912 350.122C195.954 350.434 196.074 350.663 196.271 350.809C196.532 351.007 196.886 351.106 197.334 351.106C197.824 351.106 198.199 351.007 198.459 350.809C198.73 350.611 198.912 350.341 199.006 349.997C199.068 349.778 199.094 349.325 199.084 348.637C198.626 349.179 198.053 349.45 197.365 349.45C196.511 349.45 195.85 349.143 195.381 348.528C194.912 347.903 194.678 347.163 194.678 346.309C194.678 345.716 194.782 345.169 194.99 344.669C195.209 344.158 195.521 343.768 195.928 343.497C196.334 343.226 196.813 343.091 197.365 343.091C198.105 343.091 198.714 343.387 199.193 343.981V343.231H200.162V348.606C200.162 349.575 200.063 350.262 199.865 350.669C199.667 351.075 199.355 351.393 198.928 351.622C198.501 351.861 197.975 351.981 197.35 351.981C196.61 351.981 196.011 351.815 195.553 351.481C195.094 351.148 194.87 350.643 194.881 349.966ZM195.756 346.231C195.756 347.044 195.917 347.637 196.24 348.012C196.563 348.387 196.969 348.575 197.459 348.575C197.949 348.575 198.355 348.387 198.678 348.012C199.011 347.637 199.178 347.054 199.178 346.262C199.178 345.502 199.006 344.929 198.662 344.544C198.329 344.158 197.923 343.966 197.443 343.966C196.975 343.966 196.574 344.158 196.24 344.544C195.917 344.919 195.756 345.481 195.756 346.231ZM202.053 349.45V340.856H203.115V349.45H202.053ZM209.334 347.45L210.428 347.575C210.261 348.21 209.943 348.705 209.475 349.059C209.006 349.413 208.412 349.591 207.693 349.591C206.787 349.591 206.063 349.309 205.521 348.747C204.99 348.184 204.725 347.398 204.725 346.387C204.725 345.346 204.995 344.538 205.537 343.966C206.079 343.382 206.777 343.091 207.631 343.091C208.464 343.091 209.141 343.372 209.662 343.934C210.193 344.497 210.459 345.294 210.459 346.325C210.459 346.387 210.459 346.481 210.459 346.606H205.818C205.86 347.294 206.053 347.82 206.396 348.184C206.74 348.538 207.173 348.716 207.693 348.716C208.079 348.716 208.407 348.617 208.678 348.419C208.959 348.21 209.178 347.887 209.334 347.45ZM205.881 345.747H209.35C209.308 345.216 209.178 344.82 208.959 344.559C208.615 344.153 208.178 343.95 207.646 343.95C207.157 343.95 206.745 344.111 206.412 344.434C206.089 344.757 205.912 345.195 205.881 345.747ZM211.662 346.872V345.809H214.912V346.872H211.662ZM218.396 349.45V341.872H215.568V340.856H222.381V341.872H219.537V349.45H218.396ZM223.084 349.45V340.856H224.131V343.934C224.62 343.372 225.24 343.091 225.99 343.091C226.459 343.091 226.86 343.184 227.193 343.372C227.537 343.549 227.782 343.799 227.928 344.122C228.074 344.434 228.146 344.898 228.146 345.512V349.45H227.1V345.512C227.1 344.981 226.985 344.596 226.756 344.356C226.527 344.117 226.204 343.997 225.787 343.997C225.475 343.997 225.178 344.08 224.896 344.247C224.626 344.403 224.428 344.622 224.303 344.903C224.188 345.174 224.131 345.554 224.131 346.044V349.45H223.084ZM230.068 349.45V343.231H231.021V344.169C231.261 343.731 231.48 343.445 231.678 343.309C231.886 343.163 232.115 343.091 232.365 343.091C232.719 343.091 233.079 343.2 233.443 343.419L233.084 344.403C232.824 344.247 232.568 344.169 232.318 344.169C232.079 344.169 231.865 344.242 231.678 344.387C231.501 344.523 231.376 344.716 231.303 344.966C231.178 345.341 231.115 345.747 231.115 346.184V349.45H230.068ZM238.334 347.45L239.428 347.575C239.261 348.21 238.943 348.705 238.475 349.059C238.006 349.413 237.412 349.591 236.693 349.591C235.787 349.591 235.063 349.309 234.521 348.747C233.99 348.184 233.725 347.398 233.725 346.387C233.725 345.346 233.995 344.538 234.537 343.966C235.079 343.382 235.777 343.091 236.631 343.091C237.464 343.091 238.141 343.372 238.662 343.934C239.193 344.497 239.459 345.294 239.459 346.325C239.459 346.387 239.459 346.481 239.459 346.606H234.818C234.86 347.294 235.053 347.82 235.396 348.184C235.74 348.538 236.173 348.716 236.693 348.716C237.079 348.716 237.407 348.617 237.678 348.419C237.959 348.21 238.178 347.887 238.334 347.45ZM234.881 345.747H238.35C238.308 345.216 238.178 344.82 237.959 344.559C237.615 344.153 237.178 343.95 236.646 343.95C236.157 343.95 235.745 344.111 235.412 344.434C235.089 344.757 234.912 345.195 234.881 345.747ZM245.146 348.684C244.751 349.018 244.37 349.252 244.006 349.387C243.652 349.523 243.266 349.591 242.85 349.591C242.162 349.591 241.636 349.424 241.271 349.091C240.907 348.757 240.725 348.33 240.725 347.809C240.725 347.507 240.792 347.231 240.928 346.981C241.063 346.721 241.245 346.518 241.475 346.372C241.704 346.216 241.959 346.101 242.24 346.028C242.438 345.966 242.751 345.908 243.178 345.856C244.021 345.762 244.646 345.643 245.053 345.497C245.053 345.351 245.053 345.262 245.053 345.231C245.053 344.794 244.954 344.486 244.756 344.309C244.485 344.08 244.084 343.966 243.553 343.966C243.063 343.966 242.699 344.054 242.459 344.231C242.219 344.398 242.042 344.7 241.928 345.137L240.896 344.997C240.99 344.559 241.146 344.205 241.365 343.934C241.584 343.663 241.896 343.455 242.303 343.309C242.709 343.163 243.178 343.091 243.709 343.091C244.24 343.091 244.673 343.153 245.006 343.278C245.339 343.403 245.584 343.559 245.74 343.747C245.896 343.934 246.006 344.174 246.068 344.466C246.1 344.643 246.115 344.966 246.115 345.434V346.841C246.115 347.82 246.136 348.44 246.178 348.7C246.23 348.96 246.324 349.21 246.459 349.45H245.35C245.245 349.231 245.178 348.976 245.146 348.684ZM245.053 346.325C244.667 346.481 244.094 346.617 243.334 346.731C242.896 346.794 242.589 346.867 242.412 346.95C242.235 347.023 242.094 347.132 241.99 347.278C241.896 347.424 241.85 347.591 241.85 347.778C241.85 348.059 241.954 348.294 242.162 348.481C242.381 348.669 242.693 348.762 243.1 348.762C243.506 348.762 243.865 348.674 244.178 348.497C244.501 348.32 244.735 348.075 244.881 347.762C244.995 347.523 245.053 347.174 245.053 346.716V346.325ZM252.115 349.45V348.669C251.719 349.283 251.141 349.591 250.381 349.591C249.881 349.591 249.423 349.455 249.006 349.184C248.589 348.903 248.266 348.518 248.037 348.028C247.808 347.538 247.693 346.976 247.693 346.341C247.693 345.726 247.798 345.163 248.006 344.653C248.214 344.143 248.527 343.757 248.943 343.497C249.36 343.226 249.824 343.091 250.334 343.091C250.709 343.091 251.042 343.169 251.334 343.325C251.626 343.481 251.865 343.684 252.053 343.934V340.856H253.1V349.45H252.115ZM248.787 346.341C248.787 347.143 248.954 347.742 249.287 348.137C249.62 348.523 250.016 348.716 250.475 348.716C250.933 348.716 251.324 348.528 251.646 348.153C251.969 347.778 252.131 347.205 252.131 346.434C252.131 345.58 251.964 344.955 251.631 344.559C251.308 344.163 250.907 343.966 250.428 343.966C249.959 343.966 249.568 344.158 249.256 344.544C248.943 344.919 248.787 345.518 248.787 346.341ZM259.334 347.45L260.428 347.575C260.261 348.21 259.943 348.705 259.475 349.059C259.006 349.413 258.412 349.591 257.693 349.591C256.787 349.591 256.063 349.309 255.521 348.747C254.99 348.184 254.725 347.398 254.725 346.387C254.725 345.346 254.995 344.538 255.537 343.966C256.079 343.382 256.777 343.091 257.631 343.091C258.464 343.091 259.141 343.372 259.662 343.934C260.193 344.497 260.459 345.294 260.459 346.325C260.459 346.387 260.459 346.481 260.459 346.606H255.818C255.86 347.294 256.053 347.82 256.396 348.184C256.74 348.538 257.173 348.716 257.693 348.716C258.079 348.716 258.407 348.617 258.678 348.419C258.959 348.21 259.178 347.887 259.334 347.45ZM255.881 345.747H259.35C259.308 345.216 259.178 344.82 258.959 344.559C258.615 344.153 258.178 343.95 257.646 343.95C257.157 343.95 256.745 344.111 256.412 344.434C256.089 344.757 255.912 345.195 255.881 345.747ZM266.115 349.45V348.669C265.719 349.283 265.141 349.591 264.381 349.591C263.881 349.591 263.423 349.455 263.006 349.184C262.589 348.903 262.266 348.518 262.037 348.028C261.808 347.538 261.693 346.976 261.693 346.341C261.693 345.726 261.798 345.163 262.006 344.653C262.214 344.143 262.527 343.757 262.943 343.497C263.36 343.226 263.824 343.091 264.334 343.091C264.709 343.091 265.042 343.169 265.334 343.325C265.626 343.481 265.865 343.684 266.053 343.934V340.856H267.1V349.45H266.115ZM262.787 346.341C262.787 347.143 262.954 347.742 263.287 348.137C263.62 348.523 264.016 348.716 264.475 348.716C264.933 348.716 265.324 348.528 265.646 348.153C265.969 347.778 266.131 347.205 266.131 346.434C266.131 345.58 265.964 344.955 265.631 344.559C265.308 344.163 264.907 343.966 264.428 343.966C263.959 343.966 263.568 344.158 263.256 344.544C262.943 344.919 262.787 345.518 262.787 346.341Z" fill="black"/>
<path d="M396.604 349.45V340.856H398.322L400.354 346.934C400.541 347.507 400.676 347.934 400.76 348.216C400.854 347.903 401.005 347.445 401.213 346.841L403.275 340.856H404.807V349.45H403.713V342.262L401.213 349.45H400.182L397.697 342.137V349.45H396.604ZM409.588 349.45V348.528C409.098 349.236 408.437 349.591 407.604 349.591C407.239 349.591 406.895 349.523 406.572 349.387C406.26 349.242 406.025 349.065 405.869 348.856C405.713 348.637 405.604 348.372 405.541 348.059C405.499 347.861 405.479 347.533 405.479 347.075V343.231H406.541V346.684C406.541 347.226 406.562 347.596 406.604 347.794C406.666 348.065 406.801 348.283 407.01 348.45C407.229 348.606 407.499 348.684 407.822 348.684C408.135 348.684 408.426 348.606 408.697 348.45C408.979 348.283 409.176 348.059 409.291 347.778C409.416 347.497 409.479 347.091 409.479 346.559V343.231H410.525V349.45H409.588ZM412.479 349.45V340.856H413.541V349.45H412.479ZM417.807 348.512L417.963 349.434C417.661 349.497 417.395 349.528 417.166 349.528C416.781 349.528 416.484 349.471 416.275 349.356C416.067 349.231 415.916 349.07 415.822 348.872C415.739 348.674 415.697 348.257 415.697 347.622V344.044H414.932V343.231H415.697V341.684L416.744 341.059V343.231H417.807V344.044H416.744V347.684C416.744 347.986 416.76 348.179 416.791 348.262C416.833 348.346 416.895 348.413 416.979 348.466C417.062 348.518 417.182 348.544 417.338 348.544C417.463 348.544 417.619 348.533 417.807 348.512ZM418.51 342.075V340.856H419.572V342.075H418.51ZM418.51 349.45V343.231H419.572V349.45H418.51ZM421.088 346.872V345.809H424.338V346.872H421.088ZM427.822 349.45V341.872H424.994V340.856H431.807V341.872H428.963V349.45H427.822ZM432.51 349.45V340.856H433.557V343.934C434.046 343.372 434.666 343.091 435.416 343.091C435.885 343.091 436.286 343.184 436.619 343.372C436.963 343.549 437.208 343.799 437.354 344.122C437.499 344.434 437.572 344.898 437.572 345.512V349.45H436.525V345.512C436.525 344.981 436.411 344.596 436.182 344.356C435.952 344.117 435.63 343.997 435.213 343.997C434.9 343.997 434.604 344.08 434.322 344.247C434.051 344.403 433.854 344.622 433.729 344.903C433.614 345.174 433.557 345.554 433.557 346.044V349.45H432.51ZM439.494 349.45V343.231H440.447V344.169C440.687 343.731 440.906 343.445 441.104 343.309C441.312 343.163 441.541 343.091 441.791 343.091C442.145 343.091 442.505 343.2 442.869 343.419L442.51 344.403C442.249 344.247 441.994 344.169 441.744 344.169C441.505 344.169 441.291 344.242 441.104 344.387C440.926 344.523 440.801 344.716 440.729 344.966C440.604 345.341 440.541 345.747 440.541 346.184V349.45H439.494ZM447.76 347.45L448.854 347.575C448.687 348.21 448.369 348.705 447.9 349.059C447.432 349.413 446.838 349.591 446.119 349.591C445.213 349.591 444.489 349.309 443.947 348.747C443.416 348.184 443.15 347.398 443.15 346.387C443.15 345.346 443.421 344.538 443.963 343.966C444.505 343.382 445.202 343.091 446.057 343.091C446.89 343.091 447.567 343.372 448.088 343.934C448.619 344.497 448.885 345.294 448.885 346.325C448.885 346.387 448.885 346.481 448.885 346.606H444.244C444.286 347.294 444.479 347.82 444.822 348.184C445.166 348.538 445.598 348.716 446.119 348.716C446.505 348.716 446.833 348.617 447.104 348.419C447.385 348.21 447.604 347.887 447.76 347.45ZM444.307 345.747H447.775C447.734 345.216 447.604 344.82 447.385 344.559C447.041 344.153 446.604 343.95 446.072 343.95C445.583 343.95 445.171 344.111 444.838 344.434C444.515 344.757 444.338 345.195 444.307 345.747ZM454.572 348.684C454.176 349.018 453.796 349.252 453.432 349.387C453.077 349.523 452.692 349.591 452.275 349.591C451.588 349.591 451.062 349.424 450.697 349.091C450.333 348.757 450.15 348.33 450.15 347.809C450.15 347.507 450.218 347.231 450.354 346.981C450.489 346.721 450.671 346.518 450.9 346.372C451.13 346.216 451.385 346.101 451.666 346.028C451.864 345.966 452.176 345.908 452.604 345.856C453.447 345.762 454.072 345.643 454.479 345.497C454.479 345.351 454.479 345.262 454.479 345.231C454.479 344.794 454.38 344.486 454.182 344.309C453.911 344.08 453.51 343.966 452.979 343.966C452.489 343.966 452.124 344.054 451.885 344.231C451.645 344.398 451.468 344.7 451.354 345.137L450.322 344.997C450.416 344.559 450.572 344.205 450.791 343.934C451.01 343.663 451.322 343.455 451.729 343.309C452.135 343.163 452.604 343.091 453.135 343.091C453.666 343.091 454.098 343.153 454.432 343.278C454.765 343.403 455.01 343.559 455.166 343.747C455.322 343.934 455.432 344.174 455.494 344.466C455.525 344.643 455.541 344.966 455.541 345.434V346.841C455.541 347.82 455.562 348.44 455.604 348.7C455.656 348.96 455.749 349.21 455.885 349.45H454.775C454.671 349.231 454.604 348.976 454.572 348.684ZM454.479 346.325C454.093 346.481 453.52 346.617 452.76 346.731C452.322 346.794 452.015 346.867 451.838 346.95C451.661 347.023 451.52 347.132 451.416 347.278C451.322 347.424 451.275 347.591 451.275 347.778C451.275 348.059 451.38 348.294 451.588 348.481C451.807 348.669 452.119 348.762 452.525 348.762C452.932 348.762 453.291 348.674 453.604 348.497C453.926 348.32 454.161 348.075 454.307 347.762C454.421 347.523 454.479 347.174 454.479 346.716V346.325ZM461.541 349.45V348.669C461.145 349.283 460.567 349.591 459.807 349.591C459.307 349.591 458.848 349.455 458.432 349.184C458.015 348.903 457.692 348.518 457.463 348.028C457.234 347.538 457.119 346.976 457.119 346.341C457.119 345.726 457.223 345.163 457.432 344.653C457.64 344.143 457.952 343.757 458.369 343.497C458.786 343.226 459.249 343.091 459.76 343.091C460.135 343.091 460.468 343.169 460.76 343.325C461.051 343.481 461.291 343.684 461.479 343.934V340.856H462.525V349.45H461.541ZM458.213 346.341C458.213 347.143 458.38 347.742 458.713 348.137C459.046 348.523 459.442 348.716 459.9 348.716C460.359 348.716 460.749 348.528 461.072 348.153C461.395 347.778 461.557 347.205 461.557 346.434C461.557 345.58 461.39 344.955 461.057 344.559C460.734 344.163 460.333 343.966 459.854 343.966C459.385 343.966 458.994 344.158 458.682 344.544C458.369 344.919 458.213 345.518 458.213 346.341ZM468.76 347.45L469.854 347.575C469.687 348.21 469.369 348.705 468.9 349.059C468.432 349.413 467.838 349.591 467.119 349.591C466.213 349.591 465.489 349.309 464.947 348.747C464.416 348.184 464.15 347.398 464.15 346.387C464.15 345.346 464.421 344.538 464.963 343.966C465.505 343.382 466.202 343.091 467.057 343.091C467.89 343.091 468.567 343.372 469.088 343.934C469.619 344.497 469.885 345.294 469.885 346.325C469.885 346.387 469.885 346.481 469.885 346.606H465.244C465.286 347.294 465.479 347.82 465.822 348.184C466.166 348.538 466.598 348.716 467.119 348.716C467.505 348.716 467.833 348.617 468.104 348.419C468.385 348.21 468.604 347.887 468.76 347.45ZM465.307 345.747H468.775C468.734 345.216 468.604 344.82 468.385 344.559C468.041 344.153 467.604 343.95 467.072 343.95C466.583 343.95 466.171 344.111 465.838 344.434C465.515 344.757 465.338 345.195 465.307 345.747ZM475.541 349.45V348.669C475.145 349.283 474.567 349.591 473.807 349.591C473.307 349.591 472.848 349.455 472.432 349.184C472.015 348.903 471.692 348.518 471.463 348.028C471.234 347.538 471.119 346.976 471.119 346.341C471.119 345.726 471.223 345.163 471.432 344.653C471.64 344.143 471.952 343.757 472.369 343.497C472.786 343.226 473.249 343.091 473.76 343.091C474.135 343.091 474.468 343.169 474.76 343.325C475.051 343.481 475.291 343.684 475.479 343.934V340.856H476.525V349.45H475.541ZM472.213 346.341C472.213 347.143 472.38 347.742 472.713 348.137C473.046 348.523 473.442 348.716 473.9 348.716C474.359 348.716 474.749 348.528 475.072 348.153C475.395 347.778 475.557 347.205 475.557 346.434C475.557 345.58 475.39 344.955 475.057 344.559C474.734 344.163 474.333 343.966 473.854 343.966C473.385 343.966 472.994 344.158 472.682 344.544C472.369 344.919 472.213 345.518 472.213 346.341Z" fill="black"/>
<path d="M20.1282 37.55V23.2375H26.4719C27.7428 23.2375 28.7115 23.3678 29.3782 23.6282C30.0448 23.8782 30.5761 24.3313 30.9719 24.9875C31.3678 25.6334 31.5657 26.3521 31.5657 27.1438C31.5657 28.1542 31.2375 29.0084 30.5813 29.7063C29.925 30.4042 28.9094 30.8469 27.5344 31.0344C28.0344 31.274 28.4146 31.5136 28.675 31.7532C29.2271 32.2532 29.7532 32.8886 30.2532 33.6594L32.7375 37.55H30.3625L28.4563 34.5657C27.9042 33.7115 27.4511 33.0553 27.0969 32.5969C26.7428 32.1386 26.4198 31.8209 26.1282 31.6438C25.8469 31.4563 25.5605 31.3261 25.2688 31.2532C25.05 31.2115 24.7011 31.1907 24.2219 31.1907H22.0188V37.55H20.1282ZM22.0188 29.55H26.0969C26.9615 29.55 27.6334 29.4615 28.1125 29.2844C28.6021 29.1073 28.9719 28.8209 29.2219 28.425C29.4823 28.0292 29.6125 27.6021 29.6125 27.1438C29.6125 26.4667 29.3678 25.9094 28.8782 25.4719C28.3886 25.0344 27.6125 24.8157 26.55 24.8157H22.0188V29.55ZM40.6594 37.55V36.0188C39.8573 37.1959 38.7636 37.7844 37.3782 37.7844C36.7636 37.7844 36.1907 37.6698 35.6594 37.4407C35.1282 37.2011 34.7323 36.9042 34.4719 36.55C34.2219 36.1959 34.0448 35.7584 33.9407 35.2375C33.8678 34.8938 33.8313 34.3469 33.8313 33.5969V27.175H35.5813V32.925C35.5813 33.8417 35.6178 34.4615 35.6907 34.7844C35.8053 35.2428 36.0396 35.6073 36.3938 35.8782C36.7584 36.1386 37.2011 36.2688 37.7219 36.2688C38.2532 36.2688 38.748 36.1334 39.2063 35.8625C39.675 35.5917 40.0032 35.2271 40.1907 34.7688C40.3886 34.3 40.4875 33.623 40.4875 32.7375V27.175H42.2375V37.55H40.6594ZM43.8625 37.55V27.175H45.4563V28.6594C46.2167 27.5136 47.3157 26.9407 48.7532 26.9407C49.3782 26.9407 49.9511 27.0553 50.4719 27.2844C51.0032 27.5032 51.399 27.7948 51.6594 28.1594C51.9198 28.524 52.1021 28.9563 52.2063 29.4563C52.2688 29.7896 52.3 30.3625 52.3 31.175V37.55H50.5344V31.2375C50.5344 30.5188 50.4667 29.9823 50.3313 29.6282C50.1959 29.274 49.9511 28.9928 49.5969 28.7844C49.2532 28.5761 48.8469 28.4719 48.3782 28.4719C47.6282 28.4719 46.9823 28.7115 46.4407 29.1907C45.899 29.6594 45.6282 30.5553 45.6282 31.8782V37.55H43.8625ZM57.7063 35.9719L57.9563 37.5344C57.4667 37.6386 57.024 37.6907 56.6282 37.6907C55.9928 37.6907 55.498 37.5917 55.1438 37.3938C54.8 37.1855 54.5553 36.9198 54.4094 36.5969C54.2636 36.2636 54.1907 35.5709 54.1907 34.5188V28.55H52.9094V27.175H54.1907V24.6125L55.9407 23.55V27.175H57.7063V28.55H55.9407V34.6125C55.9407 35.1125 55.9719 35.4355 56.0344 35.5813C56.0969 35.7167 56.1959 35.8313 56.3313 35.925C56.4771 36.0084 56.6803 36.05 56.9407 36.05C57.1282 36.05 57.3834 36.024 57.7063 35.9719ZM59.8782 25.2532V23.2375H61.6438V25.2532H59.8782ZM59.8782 37.55V27.175H61.6438V37.55H59.8782ZM63.8625 37.55V27.175H65.4407V28.6282C65.7636 28.1282 66.1959 27.7219 66.7376 27.4094C67.2792 27.0969 67.8938 26.9407 68.5813 26.9407C69.3521 26.9407 69.9823 27.1021 70.4719 27.425C70.9615 27.7375 71.3105 28.1803 71.5188 28.7532C72.3417 27.5448 73.4094 26.9407 74.7219 26.9407C75.7532 26.9407 76.5448 27.2271 77.0969 27.8C77.649 28.373 77.9251 29.248 77.9251 30.425V37.55H76.1751V31.0188C76.1751 30.3105 76.1178 29.8053 76.0032 29.5032C75.8886 29.1907 75.6803 28.9407 75.3782 28.7532C75.0865 28.5657 74.7376 28.4719 74.3313 28.4719C73.6021 28.4719 72.9928 28.7167 72.5032 29.2063C72.024 29.6855 71.7844 30.4563 71.7844 31.5188V37.55H70.0344V30.8157C70.0344 30.0344 69.8886 29.4511 69.5969 29.0657C69.3157 28.6698 68.8469 28.4719 68.1907 28.4719C67.7011 28.4719 67.2428 28.6021 66.8157 28.8625C66.399 29.123 66.0969 29.5032 65.9094 30.0032C65.7219 30.5032 65.6282 31.2271 65.6282 32.175V37.55H63.8625ZM86.9719 34.2063L88.7844 34.4407C88.5032 35.4928 87.9719 36.3157 87.1907 36.9094C86.4198 37.4928 85.4303 37.7844 84.2219 37.7844C82.7115 37.7844 81.5084 37.3209 80.6126 36.3938C79.7271 35.4563 79.2844 34.1438 79.2844 32.4563C79.2844 30.7063 79.7323 29.3521 80.6282 28.3938C81.524 27.425 82.6907 26.9407 84.1282 26.9407C85.5136 26.9407 86.6438 27.4146 87.5188 28.3625C88.4042 29.3 88.8469 30.6282 88.8469 32.3469C88.8469 32.4511 88.8417 32.6073 88.8313 32.8157H81.0969C81.1594 33.9511 81.4823 34.8209 82.0657 35.425C82.649 36.0292 83.373 36.3313 84.2375 36.3313C84.8834 36.3313 85.4303 36.1646 85.8782 35.8313C86.3365 35.4875 86.7011 34.9459 86.9719 34.2063ZM81.1907 31.3625H86.9875C86.9146 30.498 86.6959 29.8469 86.3313 29.4094C85.7688 28.7323 85.0396 28.3938 84.1438 28.3938C83.3417 28.3938 82.6646 28.6646 82.1126 29.2063C81.5605 29.7375 81.2532 30.4563 81.1907 31.3625ZM97.2844 37.55V28.55H95.7375V27.175H97.2844V26.0813C97.2844 25.3834 97.3469 24.8625 97.4719 24.5188C97.6386 24.0605 97.9355 23.6907 98.3625 23.4094C98.7896 23.1282 99.3886 22.9875 100.159 22.9875C100.659 22.9875 101.206 23.0448 101.8 23.1594L101.534 24.6907C101.17 24.6282 100.826 24.5969 100.503 24.5969C99.9719 24.5969 99.5917 24.7115 99.3625 24.9407C99.1438 25.1698 99.0344 25.5969 99.0344 26.2219V27.175H101.066V28.55H99.0344V37.55H97.2844ZM102.222 32.3625C102.222 30.4459 102.753 29.024 103.816 28.0969C104.712 27.3261 105.8 26.9407 107.081 26.9407C108.508 26.9407 109.67 27.4094 110.566 28.3469C111.472 29.2844 111.925 30.5761 111.925 32.2219C111.925 33.5553 111.727 34.6073 111.331 35.3782C110.935 36.1386 110.352 36.7323 109.581 37.1594C108.821 37.5761 107.988 37.7844 107.081 37.7844C105.623 37.7844 104.446 37.3209 103.55 36.3938C102.665 35.4563 102.222 34.1125 102.222 32.3625ZM104.019 32.3625C104.019 33.6959 104.305 34.6907 104.878 35.3469C105.462 36.0032 106.196 36.3313 107.081 36.3313C107.956 36.3313 108.68 36.0032 109.253 35.3469C109.837 34.6803 110.128 33.6646 110.128 32.3C110.128 31.0188 109.837 30.05 109.253 29.3938C108.67 28.7271 107.946 28.3938 107.081 28.3938C106.196 28.3938 105.462 28.7271 104.878 29.3938C104.305 30.05 104.019 31.0396 104.019 32.3625ZM113.847 37.55V27.175H115.425V28.7532C115.831 28.0136 116.206 27.5292 116.55 27.3C116.894 27.0605 117.269 26.9407 117.675 26.9407C118.269 26.9407 118.873 27.1282 119.488 27.5032L118.878 29.1438C118.451 28.8834 118.024 28.7532 117.597 28.7532C117.212 28.7532 116.863 28.873 116.55 29.1125C116.248 29.3417 116.029 29.6594 115.894 30.0657C115.706 30.6907 115.613 31.373 115.613 32.1125V37.55H113.847ZM126.456 32.9563L128.238 32.8C128.321 33.5084 128.514 34.0917 128.816 34.55C129.128 35.0084 129.607 35.3834 130.253 35.675C130.909 35.9563 131.649 36.0969 132.472 36.0969C133.191 36.0969 133.826 35.9928 134.378 35.7844C134.93 35.5657 135.342 35.2688 135.613 34.8938C135.883 34.5188 136.019 34.1073 136.019 33.6594C136.019 33.2115 135.889 32.8209 135.628 32.4875C135.368 32.1542 134.941 31.873 134.347 31.6438C133.962 31.4875 133.107 31.2532 131.784 30.9407C130.472 30.6282 129.555 30.3313 129.034 30.05C128.347 29.6959 127.837 29.2532 127.503 28.7219C127.17 28.1907 127.003 27.5969 127.003 26.9407C127.003 26.2115 127.206 25.5344 127.613 24.9094C128.019 24.2844 128.618 23.8105 129.409 23.4875C130.201 23.1542 131.076 22.9875 132.034 22.9875C133.097 22.9875 134.034 23.1594 134.847 23.5032C135.659 23.8469 136.279 24.3521 136.706 25.0188C137.144 25.675 137.378 26.425 137.409 27.2688L135.597 27.4094C135.503 26.5032 135.175 25.8209 134.613 25.3625C134.05 24.8938 133.217 24.6594 132.113 24.6594C130.967 24.6594 130.128 24.873 129.597 25.3C129.076 25.7167 128.816 26.2167 128.816 26.8C128.816 27.3209 129.003 27.748 129.378 28.0813C129.743 28.4146 130.696 28.7532 132.238 29.0969C133.779 29.4407 134.837 29.7428 135.409 30.0032C136.243 30.3886 136.857 30.8782 137.253 31.4719C137.649 32.0553 137.847 32.7323 137.847 33.5032C137.847 34.2636 137.628 34.9823 137.191 35.6594C136.753 36.3365 136.123 36.8625 135.3 37.2375C134.488 37.6125 133.571 37.8 132.55 37.8C131.258 37.8 130.175 37.6125 129.3 37.2375C128.425 36.8521 127.738 36.2792 127.238 35.5188C126.738 34.7584 126.477 33.9042 126.456 32.9563ZM139.878 25.2532V23.2375H141.644V25.2532H139.878ZM139.878 37.55V27.175H141.644V37.55H139.878ZM143.863 37.55V27.175H145.456V28.6594C146.217 27.5136 147.316 26.9407 148.753 26.9407C149.378 26.9407 149.951 27.0553 150.472 27.2844C151.003 27.5032 151.399 27.7948 151.659 28.1594C151.92 28.524 152.102 28.9563 152.206 29.4563C152.269 29.7896 152.3 30.3625 152.3 31.175V37.55H150.534V31.2375C150.534 30.5188 150.467 29.9823 150.331 29.6282C150.196 29.274 149.951 28.9928 149.597 28.7844C149.253 28.5761 148.847 28.4719 148.378 28.4719C147.628 28.4719 146.982 28.7115 146.441 29.1907C145.899 29.6594 145.628 30.5553 145.628 31.8782V37.55H143.863ZM153.55 38.4094L155.253 38.6594C155.326 39.1907 155.524 39.5761 155.847 39.8157C156.284 40.1386 156.883 40.3 157.644 40.3C158.456 40.3 159.081 40.1386 159.519 39.8157C159.967 39.4928 160.269 39.0396 160.425 38.4563C160.519 38.0917 160.56 37.3365 160.55 36.1907C159.779 37.0969 158.821 37.55 157.675 37.55C156.248 37.55 155.144 37.0344 154.363 36.0032C153.581 34.9719 153.191 33.7375 153.191 32.3C153.191 31.3105 153.368 30.399 153.722 29.5657C154.087 28.7323 154.607 28.0865 155.284 27.6282C155.972 27.1698 156.774 26.9407 157.691 26.9407C158.909 26.9407 159.92 27.4355 160.722 28.425V27.175H162.331V36.1438C162.331 37.7584 162.165 38.899 161.831 39.5657C161.508 40.2428 160.988 40.774 160.269 41.1594C159.56 41.5553 158.685 41.7532 157.644 41.7532C156.415 41.7532 155.415 41.4771 154.644 40.925C153.883 40.373 153.519 39.5344 153.55 38.4094ZM155.003 32.175C155.003 33.5396 155.274 34.5344 155.816 35.1594C156.357 35.7844 157.034 36.0969 157.847 36.0969C158.649 36.0969 159.321 35.7844 159.863 35.1594C160.415 34.5344 160.691 33.5605 160.691 32.2375C160.691 30.9667 160.409 30.0084 159.847 29.3625C159.284 28.7167 158.607 28.3938 157.816 28.3938C157.034 28.3938 156.368 28.7115 155.816 29.3469C155.274 29.9823 155.003 30.925 155.003 32.175ZM164.831 37.55V23.2375H166.581V37.55H164.831ZM175.972 34.2063L177.784 34.4407C177.503 35.4928 176.972 36.3157 176.191 36.9094C175.42 37.4928 174.43 37.7844 173.222 37.7844C171.712 37.7844 170.508 37.3209 169.613 36.3938C168.727 35.4563 168.284 34.1438 168.284 32.4563C168.284 30.7063 168.732 29.3521 169.628 28.3938C170.524 27.425 171.691 26.9407 173.128 26.9407C174.514 26.9407 175.644 27.4146 176.519 28.3625C177.404 29.3 177.847 30.6282 177.847 32.3469C177.847 32.4511 177.842 32.6073 177.831 32.8157H170.097C170.159 33.9511 170.482 34.8209 171.066 35.425C171.649 36.0292 172.373 36.3313 173.238 36.3313C173.883 36.3313 174.43 36.1646 174.878 35.8313C175.337 35.4875 175.701 34.9459 175.972 34.2063ZM170.191 31.3625H175.988C175.915 30.498 175.696 29.8469 175.331 29.4094C174.769 28.7323 174.04 28.3938 173.144 28.3938C172.342 28.3938 171.665 28.6646 171.113 29.2063C170.56 29.7375 170.253 30.4563 170.191 31.3625ZM179.191 33.2532V31.4875H184.581V33.2532H179.191ZM190.738 37.55V24.925H186.019V23.2375H197.363V24.925H192.628V37.55H190.738ZM198.863 37.55V23.2375H200.628V28.3625C201.451 27.4146 202.488 26.9407 203.738 26.9407C204.498 26.9407 205.159 27.0917 205.722 27.3938C206.295 27.6959 206.701 28.1178 206.941 28.6594C207.191 29.1907 207.316 29.9615 207.316 30.9719V37.55H205.566V30.9719C205.566 30.0969 205.373 29.4615 204.988 29.0657C204.602 28.6594 204.066 28.4563 203.378 28.4563C202.857 28.4563 202.363 28.5917 201.894 28.8625C201.435 29.1334 201.107 29.5032 200.909 29.9719C200.722 30.4303 200.628 31.0657 200.628 31.8782V37.55H198.863ZM208.847 37.55V27.175H210.425V28.7532C210.831 28.0136 211.206 27.5292 211.55 27.3C211.894 27.0605 212.269 26.9407 212.675 26.9407C213.269 26.9407 213.873 27.1282 214.488 27.5032L213.878 29.1438C213.451 28.8834 213.024 28.7532 212.597 28.7532C212.212 28.7532 211.863 28.873 211.55 29.1125C211.248 29.3417 211.029 29.6594 210.894 30.0657C210.706 30.6907 210.613 31.373 210.613 32.1125V37.55H208.847ZM222.972 34.2063L224.784 34.4407C224.503 35.4928 223.972 36.3157 223.191 36.9094C222.42 37.4928 221.43 37.7844 220.222 37.7844C218.712 37.7844 217.508 37.3209 216.613 36.3938C215.727 35.4563 215.284 34.1438 215.284 32.4563C215.284 30.7063 215.732 29.3521 216.628 28.3938C217.524 27.425 218.691 26.9407 220.128 26.9407C221.514 26.9407 222.644 27.4146 223.519 28.3625C224.404 29.3 224.847 30.6282 224.847 32.3469C224.847 32.4511 224.842 32.6073 224.831 32.8157H217.097C217.159 33.9511 217.482 34.8209 218.066 35.425C218.649 36.0292 219.373 36.3313 220.238 36.3313C220.883 36.3313 221.43 36.1646 221.878 35.8313C222.337 35.4875 222.701 34.9459 222.972 34.2063ZM217.191 31.3625H222.988C222.915 30.498 222.696 29.8469 222.331 29.4094C221.769 28.7323 221.04 28.3938 220.144 28.3938C219.342 28.3938 218.665 28.6646 218.113 29.2063C217.56 29.7375 217.253 30.4563 217.191 31.3625ZM233.644 36.2688C232.988 36.8209 232.357 37.2115 231.753 37.4407C231.149 37.6698 230.503 37.7844 229.816 37.7844C228.68 37.7844 227.805 37.5084 227.191 36.9563C226.576 36.3938 226.269 35.6803 226.269 34.8157C226.269 34.3053 226.383 33.8417 226.613 33.425C226.852 33.0084 227.159 32.675 227.534 32.425C227.909 32.1646 228.331 31.9667 228.8 31.8313C229.144 31.748 229.665 31.6594 230.363 31.5657C231.779 31.399 232.821 31.2011 233.488 30.9719C233.498 30.7323 233.503 30.5761 233.503 30.5032C233.503 29.7948 233.337 29.2896 233.003 28.9875C232.555 28.5917 231.889 28.3938 231.003 28.3938C230.17 28.3938 229.555 28.5396 229.159 28.8313C228.774 29.123 228.488 29.6386 228.3 30.3782L226.581 30.1438C226.738 29.4042 226.993 28.8105 227.347 28.3625C227.701 27.9042 228.217 27.5553 228.894 27.3157C229.571 27.0657 230.357 26.9407 231.253 26.9407C232.139 26.9407 232.857 27.0448 233.409 27.2532C233.962 27.4615 234.368 27.7271 234.628 28.05C234.889 28.3625 235.071 28.7584 235.175 29.2375C235.238 29.5396 235.269 30.0813 235.269 30.8625V33.2063C235.269 34.8417 235.305 35.8782 235.378 36.3157C235.451 36.7428 235.602 37.1542 235.831 37.55H233.988C233.81 37.1855 233.696 36.7584 233.644 36.2688ZM233.488 32.3469C232.852 32.6073 231.894 32.8261 230.613 33.0032C229.894 33.1073 229.383 33.2271 229.081 33.3625C228.79 33.4875 228.56 33.675 228.394 33.925C228.227 34.175 228.144 34.4563 228.144 34.7688C228.144 35.2375 228.321 35.6282 228.675 35.9407C229.029 36.2532 229.55 36.4094 230.238 36.4094C230.915 36.4094 231.514 36.2636 232.034 35.9719C232.566 35.6698 232.956 35.2636 233.206 34.7532C233.394 34.3469 233.488 33.7584 233.488 32.9875V32.3469ZM244.597 37.55V36.2375C243.941 37.2688 242.972 37.7844 241.691 37.7844C240.868 37.7844 240.107 37.5553 239.409 37.0969C238.722 36.6386 238.185 36.0032 237.8 35.1907C237.425 34.3782 237.238 33.4407 237.238 32.3782C237.238 31.3365 237.409 30.3938 237.753 29.55C238.097 28.7063 238.613 28.0605 239.3 27.6125C239.998 27.1646 240.769 26.9407 241.613 26.9407C242.238 26.9407 242.795 27.0761 243.284 27.3469C243.774 27.6073 244.175 27.9459 244.488 28.3625V23.2375H246.222V37.55H244.597ZM239.034 32.3782C239.034 33.7011 239.316 34.6907 239.878 35.3469C240.441 36.0032 241.102 36.3313 241.863 36.3313C242.633 36.3313 243.284 36.0188 243.816 35.3938C244.357 34.7688 244.628 33.8105 244.628 32.5188C244.628 31.1021 244.352 30.0605 243.8 29.3938C243.258 28.7271 242.587 28.3938 241.784 28.3938C241.003 28.3938 240.347 28.7167 239.816 29.3625C239.295 29.998 239.034 31.0032 239.034 32.3782ZM255.972 34.2063L257.784 34.4407C257.503 35.4928 256.972 36.3157 256.191 36.9094C255.42 37.4928 254.43 37.7844 253.222 37.7844C251.712 37.7844 250.508 37.3209 249.613 36.3938C248.727 35.4563 248.284 34.1438 248.284 32.4563C248.284 30.7063 248.732 29.3521 249.628 28.3938C250.524 27.425 251.691 26.9407 253.128 26.9407C254.514 26.9407 255.644 27.4146 256.519 28.3625C257.404 29.3 257.847 30.6282 257.847 32.3469C257.847 32.4511 257.842 32.6073 257.831 32.8157H250.097C250.159 33.9511 250.482 34.8209 251.066 35.425C251.649 36.0292 252.373 36.3313 253.238 36.3313C253.883 36.3313 254.43 36.1646 254.878 35.8313C255.337 35.4875 255.701 34.9459 255.972 34.2063ZM250.191 31.3625H255.988C255.915 30.498 255.696 29.8469 255.331 29.4094C254.769 28.7323 254.04 28.3938 253.144 28.3938C252.342 28.3938 251.665 28.6646 251.113 29.2063C250.56 29.7375 250.253 30.4563 250.191 31.3625ZM266.597 37.55V36.2375C265.941 37.2688 264.972 37.7844 263.691 37.7844C262.868 37.7844 262.107 37.5553 261.409 37.0969C260.722 36.6386 260.185 36.0032 259.8 35.1907C259.425 34.3782 259.238 33.4407 259.238 32.3782C259.238 31.3365 259.409 30.3938 259.753 29.55C260.097 28.7063 260.613 28.0605 261.3 27.6125C261.998 27.1646 262.769 26.9407 263.613 26.9407C264.238 26.9407 264.795 27.0761 265.284 27.3469C265.774 27.6073 266.175 27.9459 266.488 28.3625V23.2375H268.222V37.55H266.597ZM261.034 32.3782C261.034 33.7011 261.316 34.6907 261.878 35.3469C262.441 36.0032 263.102 36.3313 263.863 36.3313C264.633 36.3313 265.284 36.0188 265.816 35.3938C266.357 34.7688 266.628 33.8105 266.628 32.5188C266.628 31.1021 266.352 30.0605 265.8 29.3938C265.258 28.7271 264.587 28.3938 263.784 28.3938C263.003 28.3938 262.347 28.7167 261.816 29.3625C261.295 29.998 261.034 31.0032 261.034 32.3782ZM283.644 36.2688C282.988 36.8209 282.357 37.2115 281.753 37.4407C281.149 37.6698 280.503 37.7844 279.816 37.7844C278.68 37.7844 277.805 37.5084 277.191 36.9563C276.576 36.3938 276.269 35.6803 276.269 34.8157C276.269 34.3053 276.383 33.8417 276.613 33.425C276.852 33.0084 277.159 32.675 277.534 32.425C277.909 32.1646 278.331 31.9667 278.8 31.8313C279.144 31.748 279.665 31.6594 280.363 31.5657C281.779 31.399 282.821 31.2011 283.488 30.9719C283.498 30.7323 283.503 30.5761 283.503 30.5032C283.503 29.7948 283.337 29.2896 283.003 28.9875C282.555 28.5917 281.889 28.3938 281.003 28.3938C280.17 28.3938 279.555 28.5396 279.159 28.8313C278.774 29.123 278.488 29.6386 278.3 30.3782L276.581 30.1438C276.738 29.4042 276.993 28.8105 277.347 28.3625C277.701 27.9042 278.217 27.5553 278.894 27.3157C279.571 27.0657 280.357 26.9407 281.253 26.9407C282.139 26.9407 282.857 27.0448 283.409 27.2532C283.962 27.4615 284.368 27.7271 284.628 28.05C284.889 28.3625 285.071 28.7584 285.175 29.2375C285.238 29.5396 285.269 30.0813 285.269 30.8625V33.2063C285.269 34.8417 285.305 35.8782 285.378 36.3157C285.451 36.7428 285.602 37.1542 285.831 37.55H283.988C283.81 37.1855 283.696 36.7584 283.644 36.2688ZM283.488 32.3469C282.852 32.6073 281.894 32.8261 280.613 33.0032C279.894 33.1073 279.383 33.2271 279.081 33.3625C278.79 33.4875 278.56 33.675 278.394 33.925C278.227 34.175 278.144 34.4563 278.144 34.7688C278.144 35.2375 278.321 35.6282 278.675 35.9407C279.029 36.2532 279.55 36.4094 280.238 36.4094C280.915 36.4094 281.514 36.2636 282.034 35.9719C282.566 35.6698 282.956 35.2636 283.206 34.7532C283.394 34.3469 283.488 33.7584 283.488 32.9875V32.3469ZM287.863 37.55V27.175H289.456V28.6594C290.217 27.5136 291.316 26.9407 292.753 26.9407C293.378 26.9407 293.951 27.0553 294.472 27.2844C295.003 27.5032 295.399 27.7948 295.659 28.1594C295.92 28.524 296.102 28.9563 296.206 29.4563C296.269 29.7896 296.3 30.3625 296.3 31.175V37.55H294.534V31.2375C294.534 30.5188 294.467 29.9823 294.331 29.6282C294.196 29.274 293.951 28.9928 293.597 28.7844C293.253 28.5761 292.847 28.4719 292.378 28.4719C291.628 28.4719 290.982 28.7115 290.441 29.1907C289.899 29.6594 289.628 30.5553 289.628 31.8782V37.55H287.863ZM304.597 37.55V36.2375C303.941 37.2688 302.972 37.7844 301.691 37.7844C300.868 37.7844 300.107 37.5553 299.409 37.0969C298.722 36.6386 298.185 36.0032 297.8 35.1907C297.425 34.3782 297.238 33.4407 297.238 32.3782C297.238 31.3365 297.409 30.3938 297.753 29.55C298.097 28.7063 298.613 28.0605 299.3 27.6125C299.998 27.1646 300.769 26.9407 301.613 26.9407C302.238 26.9407 302.795 27.0761 303.284 27.3469C303.774 27.6073 304.175 27.9459 304.488 28.3625V23.2375H306.222V37.55H304.597ZM299.034 32.3782C299.034 33.7011 299.316 34.6907 299.878 35.3469C300.441 36.0032 301.102 36.3313 301.863 36.3313C302.633 36.3313 303.284 36.0188 303.816 35.3938C304.357 34.7688 304.628 33.8105 304.628 32.5188C304.628 31.1021 304.352 30.0605 303.8 29.3938C303.258 28.7271 302.587 28.3938 301.784 28.3938C301.003 28.3938 300.347 28.7167 299.816 29.3625C299.295 29.998 299.034 31.0032 299.034 32.3782ZM315.034 37.55V23.2375H317.894L321.269 33.3625C321.581 34.3105 321.81 35.0188 321.956 35.4875C322.123 34.9667 322.378 34.2011 322.722 33.1907L326.144 23.2375H328.691V37.55H326.878V25.5657L322.706 37.55H321.003L316.863 25.3625V37.55H315.034ZM338.659 37.55V36.0188C337.857 37.1959 336.764 37.7844 335.378 37.7844C334.764 37.7844 334.191 37.6698 333.659 37.4407C333.128 37.2011 332.732 36.9042 332.472 36.55C332.222 36.1959 332.045 35.7584 331.941 35.2375C331.868 34.8938 331.831 34.3469 331.831 33.5969V27.175H333.581V32.925C333.581 33.8417 333.618 34.4615 333.691 34.7844C333.805 35.2428 334.04 35.6073 334.394 35.8782C334.758 36.1386 335.201 36.2688 335.722 36.2688C336.253 36.2688 336.748 36.1334 337.206 35.8625C337.675 35.5917 338.003 35.2271 338.191 34.7688C338.389 34.3 338.488 33.623 338.488 32.7375V27.175H340.238V37.55H338.659ZM341.831 37.55V23.2375H343.581V37.55H341.831ZM349.706 35.9719L349.956 37.5344C349.467 37.6386 349.024 37.6907 348.628 37.6907C347.993 37.6907 347.498 37.5917 347.144 37.3938C346.8 37.1855 346.555 36.9198 346.409 36.5969C346.264 36.2636 346.191 35.5709 346.191 34.5188V28.55H344.909V27.175H346.191V24.6125L347.941 23.55V27.175H349.706V28.55H347.941V34.6125C347.941 35.1125 347.972 35.4355 348.034 35.5813C348.097 35.7167 348.196 35.8313 348.331 35.925C348.477 36.0084 348.68 36.05 348.941 36.05C349.128 36.05 349.383 36.024 349.706 35.9719ZM351.878 25.2532V23.2375H353.644V25.2532H351.878ZM351.878 37.55V27.175H353.644V37.55H351.878ZM355.191 33.2532V31.4875H360.581V33.2532H355.191ZM366.738 37.55V24.925H362.019V23.2375H373.363V24.925H368.628V37.55H366.738ZM374.863 37.55V23.2375H376.628V28.3625C377.451 27.4146 378.488 26.9407 379.738 26.9407C380.498 26.9407 381.159 27.0917 381.722 27.3938C382.295 27.6959 382.701 28.1178 382.941 28.6594C383.191 29.1907 383.316 29.9615 383.316 30.9719V37.55H381.566V30.9719C381.566 30.0969 381.373 29.4615 380.988 29.0657C380.602 28.6594 380.066 28.4563 379.378 28.4563C378.857 28.4563 378.363 28.5917 377.894 28.8625C377.435 29.1334 377.107 29.5032 376.909 29.9719C376.722 30.4303 376.628 31.0657 376.628 31.8782V37.55H374.863ZM384.847 37.55V27.175H386.425V28.7532C386.831 28.0136 387.206 27.5292 387.55 27.3C387.894 27.0605 388.269 26.9407 388.675 26.9407C389.269 26.9407 389.873 27.1282 390.488 27.5032L389.878 29.1438C389.451 28.8834 389.024 28.7532 388.597 28.7532C388.212 28.7532 387.863 28.873 387.55 29.1125C387.248 29.3417 387.029 29.6594 386.894 30.0657C386.706 30.6907 386.613 31.373 386.613 32.1125V37.55H384.847ZM398.972 34.2063L400.784 34.4407C400.503 35.4928 399.972 36.3157 399.191 36.9094C398.42 37.4928 397.43 37.7844 396.222 37.7844C394.712 37.7844 393.508 37.3209 392.613 36.3938C391.727 35.4563 391.284 34.1438 391.284 32.4563C391.284 30.7063 391.732 29.3521 392.628 28.3938C393.524 27.425 394.691 26.9407 396.128 26.9407C397.514 26.9407 398.644 27.4146 399.519 28.3625C400.404 29.3 400.847 30.6282 400.847 32.3469C400.847 32.4511 400.842 32.6073 400.831 32.8157H393.097C393.159 33.9511 393.482 34.8209 394.066 35.425C394.649 36.0292 395.373 36.3313 396.238 36.3313C396.883 36.3313 397.43 36.1646 397.878 35.8313C398.337 35.4875 398.701 34.9459 398.972 34.2063ZM393.191 31.3625H398.988C398.915 30.498 398.696 29.8469 398.331 29.4094C397.769 28.7323 397.04 28.3938 396.144 28.3938C395.342 28.3938 394.665 28.6646 394.113 29.2063C393.56 29.7375 393.253 30.4563 393.191 31.3625ZM409.644 36.2688C408.988 36.8209 408.357 37.2115 407.753 37.4407C407.149 37.6698 406.503 37.7844 405.816 37.7844C404.68 37.7844 403.805 37.5084 403.191 36.9563C402.576 36.3938 402.269 35.6803 402.269 34.8157C402.269 34.3053 402.383 33.8417 402.613 33.425C402.852 33.0084 403.159 32.675 403.534 32.425C403.909 32.1646 404.331 31.9667 404.8 31.8313C405.144 31.748 405.665 31.6594 406.363 31.5657C407.779 31.399 408.821 31.2011 409.488 30.9719C409.498 30.7323 409.503 30.5761 409.503 30.5032C409.503 29.7948 409.337 29.2896 409.003 28.9875C408.555 28.5917 407.889 28.3938 407.003 28.3938C406.17 28.3938 405.555 28.5396 405.159 28.8313C404.774 29.123 404.488 29.6386 404.3 30.3782L402.581 30.1438C402.738 29.4042 402.993 28.8105 403.347 28.3625C403.701 27.9042 404.217 27.5553 404.894 27.3157C405.571 27.0657 406.357 26.9407 407.253 26.9407C408.139 26.9407 408.857 27.0448 409.409 27.2532C409.962 27.4615 410.368 27.7271 410.628 28.05C410.889 28.3625 411.071 28.7584 411.175 29.2375C411.238 29.5396 411.269 30.0813 411.269 30.8625V33.2063C411.269 34.8417 411.305 35.8782 411.378 36.3157C411.451 36.7428 411.602 37.1542 411.831 37.55H409.988C409.81 37.1855 409.696 36.7584 409.644 36.2688ZM409.488 32.3469C408.852 32.6073 407.894 32.8261 406.613 33.0032C405.894 33.1073 405.383 33.2271 405.081 33.3625C404.79 33.4875 404.56 33.675 404.394 33.925C404.227 34.175 404.144 34.4563 404.144 34.7688C404.144 35.2375 404.321 35.6282 404.675 35.9407C405.029 36.2532 405.55 36.4094 406.238 36.4094C406.915 36.4094 407.514 36.2636 408.034 35.9719C408.566 35.6698 408.956 35.2636 409.206 34.7532C409.394 34.3469 409.488 33.7584 409.488 32.9875V32.3469ZM420.597 37.55V36.2375C419.941 37.2688 418.972 37.7844 417.691 37.7844C416.868 37.7844 416.107 37.5553 415.409 37.0969C414.722 36.6386 414.185 36.0032 413.8 35.1907C413.425 34.3782 413.238 33.4407 413.238 32.3782C413.238 31.3365 413.409 30.3938 413.753 29.55C414.097 28.7063 414.613 28.0605 415.3 27.6125C415.998 27.1646 416.769 26.9407 417.613 26.9407C418.238 26.9407 418.795 27.0761 419.284 27.3469C419.774 27.6073 420.175 27.9459 420.488 28.3625V23.2375H422.222V37.55H420.597ZM415.034 32.3782C415.034 33.7011 415.316 34.6907 415.878 35.3469C416.441 36.0032 417.102 36.3313 417.863 36.3313C418.633 36.3313 419.284 36.0188 419.816 35.3938C420.357 34.7688 420.628 33.8105 420.628 32.5188C420.628 31.1021 420.352 30.0605 419.8 29.3938C419.258 28.7271 418.587 28.3938 417.784 28.3938C417.003 28.3938 416.347 28.7167 415.816 29.3625C415.295 29.998 415.034 31.0032 415.034 32.3782ZM431.972 34.2063L433.784 34.4407C433.503 35.4928 432.972 36.3157 432.191 36.9094C431.42 37.4928 430.43 37.7844 429.222 37.7844C427.712 37.7844 426.508 37.3209 425.613 36.3938C424.727 35.4563 424.284 34.1438 424.284 32.4563C424.284 30.7063 424.732 29.3521 425.628 28.3938C426.524 27.425 427.691 26.9407 429.128 26.9407C430.514 26.9407 431.644 27.4146 432.519 28.3625C433.404 29.3 433.847 30.6282 433.847 32.3469C433.847 32.4511 433.842 32.6073 433.831 32.8157H426.097C426.159 33.9511 426.482 34.8209 427.066 35.425C427.649 36.0292 428.373 36.3313 429.238 36.3313C429.883 36.3313 430.43 36.1646 430.878 35.8313C431.337 35.4875 431.701 34.9459 431.972 34.2063ZM426.191 31.3625H431.988C431.915 30.498 431.696 29.8469 431.331 29.4094C430.769 28.7323 430.04 28.3938 429.144 28.3938C428.342 28.3938 427.665 28.6646 427.113 29.2063C426.56 29.7375 426.253 30.4563 426.191 31.3625ZM442.597 37.55V36.2375C441.941 37.2688 440.972 37.7844 439.691 37.7844C438.868 37.7844 438.107 37.5553 437.409 37.0969C436.722 36.6386 436.185 36.0032 435.8 35.1907C435.425 34.3782 435.238 33.4407 435.238 32.3782C435.238 31.3365 435.409 30.3938 435.753 29.55C436.097 28.7063 436.613 28.0605 437.3 27.6125C437.998 27.1646 438.769 26.9407 439.613 26.9407C440.238 26.9407 440.795 27.0761 441.284 27.3469C441.774 27.6073 442.175 27.9459 442.488 28.3625V23.2375H444.222V37.55H442.597ZM437.034 32.3782C437.034 33.7011 437.316 34.6907 437.878 35.3469C438.441 36.0032 439.102 36.3313 439.863 36.3313C440.633 36.3313 441.284 36.0188 441.816 35.3938C442.357 34.7688 442.628 33.8105 442.628 32.5188C442.628 31.1021 442.352 30.0605 441.8 29.3938C441.258 28.7271 440.587 28.3938 439.784 28.3938C439.003 28.3938 438.347 28.7167 437.816 29.3625C437.295 29.998 437.034 31.0032 437.034 32.3782ZM456.222 41.7532C455.253 40.5344 454.435 39.1073 453.769 37.4719C453.102 35.8261 452.769 34.123 452.769 32.3625C452.769 30.8105 453.019 29.3261 453.519 27.9094C454.102 26.2636 455.003 24.623 456.222 22.9875H457.488C456.696 24.3417 456.175 25.3105 455.925 25.8938C455.529 26.7896 455.217 27.7271 454.988 28.7063C454.706 29.925 454.566 31.149 454.566 32.3782C454.566 35.5032 455.54 38.6282 457.488 41.7532H456.222ZM465.019 37.55V34.1282H458.8V32.5032L465.331 23.2375H466.769V32.5032H468.706V34.1282H466.769V37.55H465.019ZM465.019 32.5032V26.05L460.534 32.5032H465.019ZM480.706 35.9719L480.956 37.5344C480.467 37.6386 480.024 37.6907 479.628 37.6907C478.993 37.6907 478.498 37.5917 478.144 37.3938C477.8 37.1855 477.555 36.9198 477.409 36.5969C477.264 36.2636 477.191 35.5709 477.191 34.5188V28.55H475.909V27.175H477.191V24.6125L478.941 23.55V27.175H480.706V28.55H478.941V34.6125C478.941 35.1125 478.972 35.4355 479.034 35.5813C479.097 35.7167 479.196 35.8313 479.331 35.925C479.477 36.0084 479.68 36.05 479.941 36.05C480.128 36.05 480.383 36.024 480.706 35.9719ZM482.863 37.55V23.2375H484.628V28.3625C485.451 27.4146 486.488 26.9407 487.738 26.9407C488.498 26.9407 489.159 27.0917 489.722 27.3938C490.295 27.6959 490.701 28.1178 490.941 28.6594C491.191 29.1907 491.316 29.9615 491.316 30.9719V37.55H489.566V30.9719C489.566 30.0969 489.373 29.4615 488.988 29.0657C488.602 28.6594 488.066 28.4563 487.378 28.4563C486.857 28.4563 486.363 28.5917 485.894 28.8625C485.435 29.1334 485.107 29.5032 484.909 29.9719C484.722 30.4303 484.628 31.0657 484.628 31.8782V37.55H482.863ZM492.847 37.55V27.175H494.425V28.7532C494.831 28.0136 495.206 27.5292 495.55 27.3C495.894 27.0605 496.269 26.9407 496.675 26.9407C497.269 26.9407 497.873 27.1282 498.488 27.5032L497.878 29.1438C497.451 28.8834 497.024 28.7532 496.597 28.7532C496.212 28.7532 495.863 28.873 495.55 29.1125C495.248 29.3417 495.029 29.6594 494.894 30.0657C494.706 30.6907 494.613 31.373 494.613 32.1125V37.55H492.847ZM506.972 34.2063L508.784 34.4407C508.503 35.4928 507.972 36.3157 507.191 36.9094C506.42 37.4928 505.43 37.7844 504.222 37.7844C502.712 37.7844 501.508 37.3209 500.613 36.3938C499.727 35.4563 499.284 34.1438 499.284 32.4563C499.284 30.7063 499.732 29.3521 500.628 28.3938C501.524 27.425 502.691 26.9407 504.128 26.9407C505.514 26.9407 506.644 27.4146 507.519 28.3625C508.404 29.3 508.847 30.6282 508.847 32.3469C508.847 32.4511 508.842 32.6073 508.831 32.8157H501.097C501.159 33.9511 501.482 34.8209 502.066 35.425C502.649 36.0292 503.373 36.3313 504.238 36.3313C504.883 36.3313 505.43 36.1646 505.878 35.8313C506.337 35.4875 506.701 34.9459 506.972 34.2063ZM501.191 31.3625H506.988C506.915 30.498 506.696 29.8469 506.331 29.4094C505.769 28.7323 505.04 28.3938 504.144 28.3938C503.342 28.3938 502.665 28.6646 502.113 29.2063C501.56 29.7375 501.253 30.4563 501.191 31.3625ZM517.644 36.2688C516.988 36.8209 516.357 37.2115 515.753 37.4407C515.149 37.6698 514.503 37.7844 513.816 37.7844C512.68 37.7844 511.805 37.5084 511.191 36.9563C510.576 36.3938 510.269 35.6803 510.269 34.8157C510.269 34.3053 510.383 33.8417 510.613 33.425C510.852 33.0084 511.159 32.675 511.534 32.425C511.909 32.1646 512.331 31.9667 512.8 31.8313C513.144 31.748 513.665 31.6594 514.363 31.5657C515.779 31.399 516.821 31.2011 517.488 30.9719C517.498 30.7323 517.503 30.5761 517.503 30.5032C517.503 29.7948 517.337 29.2896 517.003 28.9875C516.555 28.5917 515.889 28.3938 515.003 28.3938C514.17 28.3938 513.555 28.5396 513.159 28.8313C512.774 29.123 512.488 29.6386 512.3 30.3782L510.581 30.1438C510.738 29.4042 510.993 28.8105 511.347 28.3625C511.701 27.9042 512.217 27.5553 512.894 27.3157C513.571 27.0657 514.357 26.9407 515.253 26.9407C516.139 26.9407 516.857 27.0448 517.409 27.2532C517.962 27.4615 518.368 27.7271 518.628 28.05C518.889 28.3625 519.071 28.7584 519.175 29.2375C519.238 29.5396 519.269 30.0813 519.269 30.8625V33.2063C519.269 34.8417 519.305 35.8782 519.378 36.3157C519.451 36.7428 519.602 37.1542 519.831 37.55H517.988C517.81 37.1855 517.696 36.7584 517.644 36.2688ZM517.488 32.3469C516.852 32.6073 515.894 32.8261 514.613 33.0032C513.894 33.1073 513.383 33.2271 513.081 33.3625C512.79 33.4875 512.56 33.675 512.394 33.925C512.227 34.175 512.144 34.4563 512.144 34.7688C512.144 35.2375 512.321 35.6282 512.675 35.9407C513.029 36.2532 513.55 36.4094 514.238 36.4094C514.915 36.4094 515.514 36.2636 516.034 35.9719C516.566 35.6698 516.956 35.2636 517.206 34.7532C517.394 34.3469 517.488 33.7584 517.488 32.9875V32.3469ZM528.597 37.55V36.2375C527.941 37.2688 526.972 37.7844 525.691 37.7844C524.868 37.7844 524.107 37.5553 523.409 37.0969C522.722 36.6386 522.185 36.0032 521.8 35.1907C521.425 34.3782 521.238 33.4407 521.238 32.3782C521.238 31.3365 521.409 30.3938 521.753 29.55C522.097 28.7063 522.613 28.0605 523.3 27.6125C523.998 27.1646 524.769 26.9407 525.613 26.9407C526.238 26.9407 526.795 27.0761 527.284 27.3469C527.774 27.6073 528.175 27.9459 528.488 28.3625V23.2375H530.222V37.55H528.597ZM523.034 32.3782C523.034 33.7011 523.316 34.6907 523.878 35.3469C524.441 36.0032 525.102 36.3313 525.863 36.3313C526.633 36.3313 527.284 36.0188 527.816 35.3938C528.357 34.7688 528.628 33.8105 528.628 32.5188C528.628 31.1021 528.352 30.0605 527.8 29.3938C527.258 28.7271 526.587 28.3938 525.784 28.3938C525.003 28.3938 524.347 28.7167 523.816 29.3625C523.295 29.998 523.034 31.0032 523.034 32.3782ZM532.159 34.4563L533.909 34.175C534.003 34.873 534.274 35.4094 534.722 35.7844C535.17 36.149 535.795 36.3313 536.597 36.3313C537.399 36.3313 537.993 36.1698 538.378 35.8469C538.774 35.5136 538.972 35.1282 538.972 34.6907C538.972 34.2948 538.8 33.9823 538.456 33.7532C538.217 33.5969 537.618 33.399 536.659 33.1594C535.368 32.8261 534.472 32.5448 533.972 32.3157C533.482 32.0761 533.107 31.748 532.847 31.3313C532.587 30.9042 532.456 30.4355 532.456 29.925C532.456 29.4667 532.56 29.0396 532.769 28.6438C532.988 28.248 533.279 27.9198 533.644 27.6594C533.915 27.4615 534.284 27.2948 534.753 27.1594C535.232 27.0136 535.743 26.9407 536.284 26.9407C537.097 26.9407 537.81 27.0605 538.425 27.3C539.04 27.5292 539.493 27.8469 539.784 28.2532C540.076 28.649 540.279 29.1803 540.394 29.8469L538.675 30.0813C538.592 29.55 538.363 29.1386 537.988 28.8469C537.613 28.5448 537.087 28.3938 536.409 28.3938C535.597 28.3938 535.019 28.5292 534.675 28.8C534.331 29.0605 534.159 29.3678 534.159 29.7219C534.159 29.9511 534.232 30.1594 534.378 30.3469C534.514 30.5344 534.738 30.6907 535.05 30.8157C535.227 30.8782 535.743 31.024 536.597 31.2532C537.847 31.5865 538.717 31.8625 539.206 32.0813C539.696 32.2896 540.081 32.5969 540.363 33.0032C540.644 33.399 540.784 33.899 540.784 34.5032C540.784 35.0865 540.613 35.6386 540.269 36.1594C539.925 36.6803 539.43 37.0813 538.784 37.3625C538.139 37.6438 537.409 37.7844 536.597 37.7844C535.253 37.7844 534.227 37.5032 533.519 36.9407C532.81 36.3782 532.357 35.55 532.159 34.4563ZM544.019 41.7532H542.769C544.706 38.6282 545.675 35.5032 545.675 32.3782C545.675 31.149 545.54 29.9355 545.269 28.7375C545.04 27.7584 544.727 26.8209 544.331 25.925C544.081 25.3313 543.56 24.3521 542.769 22.9875H544.019C545.248 24.623 546.154 26.2636 546.738 27.9094C547.238 29.3261 547.488 30.8105 547.488 32.3625C547.488 34.123 547.149 35.8261 546.472 37.4719C545.805 39.1073 544.988 40.5344 544.019 41.7532Z" fill="#757575"/>
<path d="M22.7532 61.55L18.8 51.175H20.6594L22.8938 57.3938C23.1334 58.0605 23.3521 58.7532 23.55 59.4719C23.7063 58.9303 23.925 58.274 24.2063 57.5032L26.5032 51.175H28.3157L24.3938 61.55H22.7532ZM35.9719 58.2063L37.7844 58.4407C37.5032 59.4928 36.9719 60.3157 36.1907 60.9094C35.4198 61.4928 34.4303 61.7844 33.2219 61.7844C31.7115 61.7844 30.5084 61.3209 29.6125 60.3938C28.7271 59.4563 28.2844 58.1438 28.2844 56.4563C28.2844 54.7063 28.7323 53.3521 29.6282 52.3938C30.524 51.425 31.6907 50.9407 33.1282 50.9407C34.5136 50.9407 35.6438 51.4146 36.5188 52.3625C37.4042 53.3 37.8469 54.6282 37.8469 56.3469C37.8469 56.4511 37.8417 56.6073 37.8313 56.8157H30.0969C30.1594 57.9511 30.4823 58.8209 31.0657 59.425C31.649 60.0292 32.373 60.3313 33.2375 60.3313C33.8834 60.3313 34.4303 60.1646 34.8782 59.8313C35.3365 59.4875 35.7011 58.9459 35.9719 58.2063ZM30.1907 55.3625H35.9875C35.9146 54.498 35.6959 53.8469 35.3313 53.4094C34.7688 52.7323 34.0396 52.3938 33.1438 52.3938C32.3417 52.3938 31.6646 52.6646 31.1125 53.2063C30.5605 53.7375 30.2532 54.4563 30.1907 55.3625ZM39.8469 61.55V51.175H41.425V52.7532C41.8313 52.0136 42.2063 51.5292 42.55 51.3C42.8938 51.0605 43.2688 50.9407 43.675 50.9407C44.2688 50.9407 44.873 51.1282 45.4875 51.5032L44.8782 53.1438C44.4511 52.8834 44.024 52.7532 43.5969 52.7532C43.2115 52.7532 42.8625 52.873 42.55 53.1125C42.248 53.3417 42.0292 53.6594 41.8938 54.0657C41.7063 54.6907 41.6125 55.373 41.6125 56.1125V61.55H39.8469ZM46.1594 58.4563L47.9094 58.175C48.0032 58.873 48.274 59.4094 48.7219 59.7844C49.1698 60.149 49.7948 60.3313 50.5969 60.3313C51.399 60.3313 51.9928 60.1698 52.3782 59.8469C52.774 59.5136 52.9719 59.1282 52.9719 58.6907C52.9719 58.2948 52.8 57.9823 52.4563 57.7532C52.2167 57.5969 51.6178 57.399 50.6594 57.1594C49.3678 56.8261 48.4719 56.5448 47.9719 56.3157C47.4823 56.0761 47.1073 55.748 46.8469 55.3313C46.5865 54.9042 46.4563 54.4355 46.4563 53.925C46.4563 53.4667 46.5605 53.0396 46.7688 52.6438C46.9875 52.248 47.2792 51.9198 47.6438 51.6594C47.9146 51.4615 48.2844 51.2948 48.7532 51.1594C49.2323 51.0136 49.7428 50.9407 50.2844 50.9407C51.0969 50.9407 51.8105 51.0605 52.425 51.3C53.0396 51.5292 53.4928 51.8469 53.7844 52.2532C54.0761 52.649 54.2792 53.1803 54.3938 53.8469L52.675 54.0813C52.5917 53.55 52.3625 53.1386 51.9875 52.8469C51.6125 52.5448 51.0865 52.3938 50.4094 52.3938C49.5969 52.3938 49.0188 52.5292 48.675 52.8C48.3313 53.0605 48.1594 53.3678 48.1594 53.7219C48.1594 53.9511 48.2323 54.1594 48.3782 54.3469C48.5136 54.5344 48.7375 54.6907 49.05 54.8157C49.2271 54.8782 49.7428 55.024 50.5969 55.2532C51.8469 55.5865 52.7167 55.8625 53.2063 56.0813C53.6959 56.2896 54.0813 56.5969 54.3625 57.0032C54.6438 57.399 54.7844 57.899 54.7844 58.5032C54.7844 59.0865 54.6125 59.6386 54.2688 60.1594C53.925 60.6803 53.4303 61.0813 52.7844 61.3625C52.1386 61.6438 51.4094 61.7844 50.5969 61.7844C49.2532 61.7844 48.2271 61.5032 47.5188 60.9407C46.8105 60.3782 46.3573 59.55 46.1594 58.4563ZM56.8782 49.2532V47.2375H58.6438V49.2532H56.8782ZM56.8782 61.55V51.175H58.6438V61.55H56.8782ZM60.2219 56.3625C60.2219 54.4459 60.7532 53.024 61.8157 52.0969C62.7115 51.3261 63.8001 50.9407 65.0813 50.9407C66.5084 50.9407 67.6698 51.4094 68.5657 52.3469C69.4719 53.2844 69.9251 54.5761 69.9251 56.2219C69.9251 57.5553 69.7271 58.6073 69.3313 59.3782C68.9355 60.1386 68.3521 60.7323 67.5813 61.1594C66.8209 61.5761 65.9876 61.7844 65.0813 61.7844C63.623 61.7844 62.4459 61.3209 61.55 60.3938C60.6646 59.4563 60.2219 58.1125 60.2219 56.3625ZM62.0188 56.3625C62.0188 57.6959 62.3053 58.6907 62.8782 59.3469C63.4615 60.0032 64.1959 60.3313 65.0813 60.3313C65.9563 60.3313 66.6803 60.0032 67.2532 59.3469C67.8365 58.6803 68.1282 57.6646 68.1282 56.3C68.1282 55.0188 67.8365 54.05 67.2532 53.3938C66.6698 52.7271 65.9459 52.3938 65.0813 52.3938C64.1959 52.3938 63.4615 52.7271 62.8782 53.3938C62.3053 54.05 62.0188 55.0396 62.0188 56.3625ZM71.8626 61.55V51.175H73.4563V52.6594C74.2167 51.5136 75.3157 50.9407 76.7532 50.9407C77.3782 50.9407 77.9511 51.0553 78.4719 51.2844C79.0032 51.5032 79.399 51.7948 79.6594 52.1594C79.9198 52.524 80.1021 52.9563 80.2063 53.4563C80.2688 53.7896 80.3001 54.3625 80.3001 55.175V61.55H78.5344V55.2375C78.5344 54.5188 78.4667 53.9823 78.3313 53.6282C78.1959 53.274 77.9511 52.9928 77.5969 52.7844C77.2532 52.5761 76.8469 52.4719 76.3782 52.4719C75.6282 52.4719 74.9823 52.7115 74.4407 53.1907C73.899 53.6594 73.6282 54.5553 73.6282 55.8782V61.55H71.8626ZM81.1594 58.4563L82.9094 58.175C83.0032 58.873 83.274 59.4094 83.7219 59.7844C84.1698 60.149 84.7948 60.3313 85.5969 60.3313C86.399 60.3313 86.9928 60.1698 87.3782 59.8469C87.774 59.5136 87.9719 59.1282 87.9719 58.6907C87.9719 58.2948 87.8001 57.9823 87.4563 57.7532C87.2167 57.5969 86.6178 57.399 85.6594 57.1594C84.3678 56.8261 83.4719 56.5448 82.9719 56.3157C82.4823 56.0761 82.1073 55.748 81.8469 55.3313C81.5865 54.9042 81.4563 54.4355 81.4563 53.925C81.4563 53.4667 81.5605 53.0396 81.7688 52.6438C81.9876 52.248 82.2792 51.9198 82.6438 51.6594C82.9146 51.4615 83.2844 51.2948 83.7532 51.1594C84.2323 51.0136 84.7428 50.9407 85.2844 50.9407C86.0969 50.9407 86.8105 51.0605 87.425 51.3C88.0396 51.5292 88.4928 51.8469 88.7844 52.2532C89.0761 52.649 89.2792 53.1803 89.3938 53.8469L87.675 54.0813C87.5917 53.55 87.3625 53.1386 86.9875 52.8469C86.6125 52.5448 86.0865 52.3938 85.4094 52.3938C84.5969 52.3938 84.0188 52.5292 83.675 52.8C83.3313 53.0605 83.1594 53.3678 83.1594 53.7219C83.1594 53.9511 83.2323 54.1594 83.3782 54.3469C83.5136 54.5344 83.7375 54.6907 84.05 54.8157C84.2271 54.8782 84.7428 55.024 85.5969 55.2532C86.8469 55.5865 87.7167 55.8625 88.2063 56.0813C88.6959 56.2896 89.0813 56.5969 89.3625 57.0032C89.6438 57.399 89.7844 57.899 89.7844 58.5032C89.7844 59.0865 89.6126 59.6386 89.2688 60.1594C88.9251 60.6803 88.4303 61.0813 87.7844 61.3625C87.1386 61.6438 86.4094 61.7844 85.5969 61.7844C84.2532 61.7844 83.2271 61.5032 82.5188 60.9407C81.8105 60.3782 81.3573 59.55 81.1594 58.4563ZM97.2219 56.3625C97.2219 54.4459 97.7532 53.024 98.8157 52.0969C99.7115 51.3261 100.8 50.9407 102.081 50.9407C103.508 50.9407 104.67 51.4094 105.566 52.3469C106.472 53.2844 106.925 54.5761 106.925 56.2219C106.925 57.5553 106.727 58.6073 106.331 59.3782C105.935 60.1386 105.352 60.7323 104.581 61.1594C103.821 61.5761 102.988 61.7844 102.081 61.7844C100.623 61.7844 99.4459 61.3209 98.55 60.3938C97.6646 59.4563 97.2219 58.1125 97.2219 56.3625ZM99.0188 56.3625C99.0188 57.6959 99.3053 58.6907 99.8782 59.3469C100.462 60.0032 101.196 60.3313 102.081 60.3313C102.956 60.3313 103.68 60.0032 104.253 59.3469C104.837 58.6803 105.128 57.6646 105.128 56.3C105.128 55.0188 104.837 54.05 104.253 53.3938C103.67 52.7271 102.946 52.3938 102.081 52.3938C101.196 52.3938 100.462 52.7271 99.8782 53.3938C99.3053 54.05 99.0188 55.0396 99.0188 56.3625ZM109.284 61.55V52.55H107.738V51.175H109.284V50.0813C109.284 49.3834 109.347 48.8625 109.472 48.5188C109.639 48.0605 109.935 47.6907 110.363 47.4094C110.79 47.1282 111.389 46.9875 112.159 46.9875C112.659 46.9875 113.206 47.0448 113.8 47.1594L113.534 48.6907C113.17 48.6282 112.826 48.5969 112.503 48.5969C111.972 48.5969 111.592 48.7115 111.363 48.9407C111.144 49.1698 111.034 49.5969 111.034 50.2219V51.175H113.066V52.55H111.034V61.55H109.284ZM120.863 65.5188V51.175H122.472V52.5188C122.847 51.998 123.269 51.6073 123.738 51.3469C124.217 51.0761 124.795 50.9407 125.472 50.9407C126.357 50.9407 127.139 51.1698 127.816 51.6282C128.493 52.0865 129.003 52.7323 129.347 53.5657C129.701 54.3886 129.878 55.2948 129.878 56.2844C129.878 57.3469 129.685 58.3053 129.3 59.1594C128.925 60.0032 128.373 60.6542 127.644 61.1125C126.915 61.5605 126.149 61.7844 125.347 61.7844C124.764 61.7844 124.238 61.6594 123.769 61.4094C123.31 61.1594 122.93 60.8469 122.628 60.4719V65.5188H120.863ZM122.456 56.425C122.456 57.7584 122.727 58.7428 123.269 59.3782C123.81 60.0136 124.467 60.3313 125.238 60.3313C126.019 60.3313 126.685 60.0032 127.238 59.3469C127.8 58.6907 128.081 57.6646 128.081 56.2688C128.081 54.9563 127.805 53.9719 127.253 53.3157C126.712 52.649 126.066 52.3157 125.316 52.3157C124.566 52.3157 123.899 52.6698 123.316 53.3782C122.743 54.0761 122.456 55.0917 122.456 56.425ZM131.847 61.55V51.175H133.425V52.7532C133.831 52.0136 134.206 51.5292 134.55 51.3C134.894 51.0605 135.269 50.9407 135.675 50.9407C136.269 50.9407 136.873 51.1282 137.488 51.5032L136.878 53.1438C136.451 52.8834 136.024 52.7532 135.597 52.7532C135.212 52.7532 134.863 52.873 134.55 53.1125C134.248 53.3417 134.029 53.6594 133.894 54.0657C133.706 54.6907 133.613 55.373 133.613 56.1125V61.55H131.847ZM138.222 56.3625C138.222 54.4459 138.753 53.024 139.816 52.0969C140.712 51.3261 141.8 50.9407 143.081 50.9407C144.508 50.9407 145.67 51.4094 146.566 52.3469C147.472 53.2844 147.925 54.5761 147.925 56.2219C147.925 57.5553 147.727 58.6073 147.331 59.3782C146.935 60.1386 146.352 60.7323 145.581 61.1594C144.821 61.5761 143.988 61.7844 143.081 61.7844C141.623 61.7844 140.446 61.3209 139.55 60.3938C138.665 59.4563 138.222 58.1125 138.222 56.3625ZM140.019 56.3625C140.019 57.6959 140.305 58.6907 140.878 59.3469C141.462 60.0032 142.196 60.3313 143.081 60.3313C143.956 60.3313 144.68 60.0032 145.253 59.3469C145.837 58.6803 146.128 57.6646 146.128 56.3C146.128 55.0188 145.837 54.05 145.253 53.3938C144.67 52.7271 143.946 52.3938 143.081 52.3938C142.196 52.3938 141.462 52.7271 140.878 53.3938C140.305 54.05 140.019 55.0396 140.019 56.3625ZM149.55 62.4094L151.253 62.6594C151.326 63.1907 151.524 63.5761 151.847 63.8157C152.284 64.1386 152.883 64.3001 153.644 64.3001C154.456 64.3001 155.081 64.1386 155.519 63.8157C155.967 63.4928 156.269 63.0396 156.425 62.4563C156.519 62.0917 156.56 61.3365 156.55 60.1907C155.779 61.0969 154.821 61.55 153.675 61.55C152.248 61.55 151.144 61.0344 150.363 60.0032C149.581 58.9719 149.191 57.7375 149.191 56.3C149.191 55.3105 149.368 54.399 149.722 53.5657C150.087 52.7323 150.607 52.0865 151.284 51.6282C151.972 51.1698 152.774 50.9407 153.691 50.9407C154.909 50.9407 155.92 51.4355 156.722 52.425V51.175H158.331V60.1438C158.331 61.7584 158.165 62.899 157.831 63.5657C157.508 64.2428 156.988 64.774 156.269 65.1594C155.56 65.5553 154.685 65.7532 153.644 65.7532C152.415 65.7532 151.415 65.4771 150.644 64.9251C149.883 64.373 149.519 63.5344 149.55 62.4094ZM151.003 56.175C151.003 57.5396 151.274 58.5344 151.816 59.1594C152.357 59.7844 153.034 60.0969 153.847 60.0969C154.649 60.0969 155.321 59.7844 155.863 59.1594C156.415 58.5344 156.691 57.5605 156.691 56.2375C156.691 54.9667 156.409 54.0084 155.847 53.3625C155.284 52.7167 154.607 52.3938 153.816 52.3938C153.034 52.3938 152.368 52.7115 151.816 53.3469C151.274 53.9823 151.003 54.925 151.003 56.175ZM160.847 61.55V51.175H162.425V52.7532C162.831 52.0136 163.206 51.5292 163.55 51.3C163.894 51.0605 164.269 50.9407 164.675 50.9407C165.269 50.9407 165.873 51.1282 166.488 51.5032L165.878 53.1438C165.451 52.8834 165.024 52.7532 164.597 52.7532C164.212 52.7532 163.863 52.873 163.55 53.1125C163.248 53.3417 163.029 53.6594 162.894 54.0657C162.706 54.6907 162.613 55.373 162.613 56.1125V61.55H160.847ZM174.644 60.2688C173.988 60.8209 173.357 61.2115 172.753 61.4407C172.149 61.6698 171.503 61.7844 170.816 61.7844C169.68 61.7844 168.805 61.5084 168.191 60.9563C167.576 60.3938 167.269 59.6803 167.269 58.8157C167.269 58.3053 167.383 57.8417 167.613 57.425C167.852 57.0084 168.159 56.675 168.534 56.425C168.909 56.1646 169.331 55.9667 169.8 55.8313C170.144 55.748 170.665 55.6594 171.363 55.5657C172.779 55.399 173.821 55.2011 174.488 54.9719C174.498 54.7323 174.503 54.5761 174.503 54.5032C174.503 53.7948 174.337 53.2896 174.003 52.9875C173.555 52.5917 172.889 52.3938 172.003 52.3938C171.17 52.3938 170.555 52.5396 170.159 52.8313C169.774 53.123 169.488 53.6386 169.3 54.3782L167.581 54.1438C167.738 53.4042 167.993 52.8105 168.347 52.3625C168.701 51.9042 169.217 51.5553 169.894 51.3157C170.571 51.0657 171.357 50.9407 172.253 50.9407C173.139 50.9407 173.857 51.0448 174.409 51.2532C174.962 51.4615 175.368 51.7271 175.628 52.05C175.889 52.3625 176.071 52.7584 176.175 53.2375C176.238 53.5396 176.269 54.0813 176.269 54.8625V57.2063C176.269 58.8417 176.305 59.8782 176.378 60.3157C176.451 60.7428 176.602 61.1542 176.831 61.55H174.988C174.81 61.1855 174.696 60.7584 174.644 60.2688ZM174.488 56.3469C173.852 56.6073 172.894 56.8261 171.613 57.0032C170.894 57.1073 170.383 57.2271 170.081 57.3625C169.79 57.4875 169.56 57.675 169.394 57.925C169.227 58.175 169.144 58.4563 169.144 58.7688C169.144 59.2375 169.321 59.6282 169.675 59.9407C170.029 60.2532 170.55 60.4094 171.238 60.4094C171.915 60.4094 172.514 60.2636 173.034 59.9719C173.566 59.6698 173.956 59.2636 174.206 58.7532C174.394 58.3469 174.488 57.7584 174.488 56.9875V56.3469ZM178.863 61.55V51.175H180.441V52.6282C180.764 52.1282 181.196 51.7219 181.738 51.4094C182.279 51.0969 182.894 50.9407 183.581 50.9407C184.352 50.9407 184.982 51.1021 185.472 51.425C185.962 51.7375 186.31 52.1803 186.519 52.7532C187.342 51.5448 188.409 50.9407 189.722 50.9407C190.753 50.9407 191.545 51.2271 192.097 51.8C192.649 52.373 192.925 53.248 192.925 54.425V61.55H191.175V55.0188C191.175 54.3105 191.118 53.8053 191.003 53.5032C190.889 53.1907 190.68 52.9407 190.378 52.7532C190.087 52.5657 189.738 52.4719 189.331 52.4719C188.602 52.4719 187.993 52.7167 187.503 53.2063C187.024 53.6855 186.784 54.4563 186.784 55.5188V61.55H185.034V54.8157C185.034 54.0344 184.889 53.4511 184.597 53.0657C184.316 52.6698 183.847 52.4719 183.191 52.4719C182.701 52.4719 182.243 52.6021 181.816 52.8625C181.399 53.123 181.097 53.5032 180.909 54.0032C180.722 54.5032 180.628 55.2271 180.628 56.175V61.55H178.863Z" fill="#757575"/>
<path d="M316 276L306.453 296L329.547 296L320 276L316 276ZM320 157L329.547 137L306.453 137L316 157L320 157ZM320 278L320 155L316 155L316 278L320 278Z" fill="black"/>
<path d="M330.08 216.939L329.213 216.717L329.641 212.469H334.018V213.471H330.561L330.303 215.791C330.459 215.701 330.656 215.617 330.895 215.539C331.137 215.461 331.414 215.422 331.727 215.422C332.121 215.422 332.475 215.49 332.787 215.627C333.1 215.76 333.365 215.951 333.584 216.201C333.807 216.451 333.977 216.752 334.094 217.104C334.211 217.455 334.27 217.848 334.27 218.281C334.27 218.691 334.213 219.068 334.1 219.412C333.99 219.756 333.824 220.057 333.602 220.314C333.379 220.568 333.098 220.766 332.758 220.906C332.422 221.047 332.025 221.117 331.568 221.117C331.225 221.117 330.898 221.07 330.59 220.977C330.285 220.879 330.012 220.732 329.77 220.537C329.531 220.338 329.336 220.092 329.184 219.799C329.035 219.502 328.941 219.154 328.902 218.756H329.934C329.98 219.076 330.074 219.346 330.215 219.564C330.355 219.783 330.539 219.949 330.766 220.062C330.996 220.172 331.264 220.227 331.568 220.227C331.826 220.227 332.055 220.182 332.254 220.092C332.453 220.002 332.621 219.873 332.758 219.705C332.895 219.537 332.998 219.334 333.068 219.096C333.143 218.857 333.18 218.59 333.18 218.293C333.18 218.023 333.143 217.773 333.068 217.543C332.994 217.312 332.883 217.111 332.734 216.939C332.59 216.768 332.412 216.635 332.201 216.541C331.99 216.443 331.748 216.395 331.475 216.395C331.111 216.395 330.836 216.443 330.648 216.541C330.465 216.639 330.275 216.771 330.08 216.939ZM336.561 219.711V220.584C336.561 220.939 336.471 221.314 336.291 221.709C336.111 222.107 335.859 222.439 335.535 222.705L334.92 222.277C335.045 222.105 335.15 221.93 335.236 221.75C335.322 221.574 335.387 221.391 335.43 221.199C335.477 221.012 335.5 220.812 335.5 220.602V219.711H336.561ZM339.408 216.201H340.182C340.561 216.201 340.873 216.139 341.119 216.014C341.369 215.885 341.555 215.711 341.676 215.492C341.801 215.27 341.863 215.02 341.863 214.742C341.863 214.414 341.809 214.139 341.699 213.916C341.59 213.693 341.426 213.525 341.207 213.412C340.988 213.299 340.711 213.242 340.375 213.242C340.07 213.242 339.801 213.303 339.566 213.424C339.336 213.541 339.154 213.709 339.021 213.928C338.893 214.146 338.828 214.404 338.828 214.701H337.744C337.744 214.268 337.854 213.873 338.072 213.518C338.291 213.162 338.598 212.879 338.992 212.668C339.391 212.457 339.852 212.352 340.375 212.352C340.891 212.352 341.342 212.443 341.729 212.627C342.115 212.807 342.416 213.076 342.631 213.436C342.846 213.791 342.953 214.234 342.953 214.766C342.953 214.98 342.902 215.211 342.801 215.457C342.703 215.699 342.549 215.926 342.338 216.137C342.131 216.348 341.861 216.521 341.529 216.658C341.197 216.791 340.799 216.857 340.334 216.857H339.408V216.201ZM339.408 217.092V216.441H340.334C340.877 216.441 341.326 216.506 341.682 216.635C342.037 216.764 342.316 216.936 342.52 217.15C342.727 217.365 342.871 217.602 342.953 217.859C343.039 218.113 343.082 218.367 343.082 218.621C343.082 219.02 343.014 219.373 342.877 219.682C342.744 219.99 342.555 220.252 342.309 220.467C342.066 220.682 341.781 220.844 341.453 220.953C341.125 221.062 340.768 221.117 340.381 221.117C340.01 221.117 339.66 221.064 339.332 220.959C339.008 220.854 338.721 220.701 338.471 220.502C338.221 220.299 338.025 220.051 337.885 219.758C337.744 219.461 337.674 219.123 337.674 218.744H338.758C338.758 219.041 338.822 219.301 338.951 219.523C339.084 219.746 339.271 219.92 339.514 220.045C339.76 220.166 340.049 220.227 340.381 220.227C340.713 220.227 340.998 220.17 341.236 220.057C341.479 219.939 341.664 219.764 341.793 219.529C341.926 219.295 341.992 219 341.992 218.645C341.992 218.289 341.918 217.998 341.77 217.771C341.621 217.541 341.41 217.371 341.137 217.262C340.867 217.148 340.549 217.092 340.182 217.092H339.408ZM349.955 218.691C349.955 219.211 349.834 219.652 349.592 220.016C349.354 220.375 349.029 220.648 348.619 220.836C348.213 221.023 347.754 221.117 347.242 221.117C346.73 221.117 346.27 221.023 345.859 220.836C345.449 220.648 345.125 220.375 344.887 220.016C344.648 219.652 344.529 219.211 344.529 218.691C344.529 218.352 344.594 218.041 344.723 217.76C344.855 217.475 345.041 217.227 345.279 217.016C345.521 216.805 345.807 216.643 346.135 216.529C346.467 216.412 346.832 216.354 347.23 216.354C347.754 216.354 348.221 216.455 348.631 216.658C349.041 216.857 349.363 217.133 349.598 217.484C349.836 217.836 349.955 218.238 349.955 218.691ZM348.865 218.668C348.865 218.352 348.797 218.072 348.66 217.83C348.523 217.584 348.332 217.393 348.086 217.256C347.84 217.119 347.555 217.051 347.23 217.051C346.898 217.051 346.611 217.119 346.369 217.256C346.131 217.393 345.945 217.584 345.812 217.83C345.68 218.072 345.613 218.352 345.613 218.668C345.613 218.996 345.678 219.277 345.807 219.512C345.939 219.742 346.127 219.92 346.369 220.045C346.615 220.166 346.906 220.227 347.242 220.227C347.578 220.227 347.867 220.166 348.109 220.045C348.352 219.92 348.537 219.742 348.666 219.512C348.799 219.277 348.865 218.996 348.865 218.668ZM349.756 214.689C349.756 215.104 349.646 215.477 349.428 215.809C349.209 216.141 348.91 216.402 348.531 216.594C348.152 216.785 347.723 216.881 347.242 216.881C346.754 216.881 346.318 216.785 345.936 216.594C345.557 216.402 345.26 216.141 345.045 215.809C344.83 215.477 344.723 215.104 344.723 214.689C344.723 214.193 344.83 213.771 345.045 213.424C345.264 213.076 345.562 212.811 345.941 212.627C346.32 212.443 346.752 212.352 347.236 212.352C347.725 212.352 348.158 212.443 348.537 212.627C348.916 212.811 349.213 213.076 349.428 213.424C349.646 213.771 349.756 214.193 349.756 214.689ZM348.672 214.707C348.672 214.422 348.611 214.17 348.49 213.951C348.369 213.732 348.201 213.561 347.986 213.436C347.771 213.307 347.521 213.242 347.236 213.242C346.951 213.242 346.701 213.303 346.486 213.424C346.275 213.541 346.109 213.709 345.988 213.928C345.871 214.146 345.812 214.406 345.812 214.707C345.812 215 345.871 215.256 345.988 215.475C346.109 215.693 346.277 215.863 346.492 215.984C346.707 216.105 346.957 216.166 347.242 216.166C347.527 216.166 347.775 216.105 347.986 215.984C348.201 215.863 348.369 215.693 348.49 215.475C348.611 215.256 348.672 215 348.672 214.707ZM352.176 214.66L353.564 216.969L354.971 214.66H356.242L354.168 217.789L356.307 221H355.053L353.588 218.621L352.123 221H350.863L352.996 217.789L350.928 214.66H352.176Z" fill="black"/>
</g>
<defs>
<clipPath id="clip0_134_123">
<rect width="600" height="371" fill="white"/>
</clipPath>
</defs>
</svg>
